<svg width="148" height="137" viewBox="0 0 148 137" fill="none" xmlns="http://www.w3.org/2000/svg">
<path fill-rule="evenodd" clip-rule="evenodd" d="M95.5303 83.1579L95.2654 82.9959C94.875 83.8681 94.4846 84.7406 94.0946 85.6128C94.6855 84.8433 95.3087 84.0955 95.5303 83.1579ZM96.4353 79.8702C96.9667 78.7818 97.448 77.6011 97.3769 76.2806C97.0632 77.4773 96.7493 78.6738 96.4353 79.8702ZM43.0774 49.2982C43.2286 49.1282 43.3843 48.9615 43.5303 48.7868C46.5442 45.1874 49.8966 41.9372 53.5561 38.9963C55.6181 37.3394 58.0598 36.2015 60.0557 34.5176C62.2738 32.6462 64.4903 30.8905 67.2192 29.8543C67.24 29.8463 67.2216 29.7338 67.2216 29.5509C61.579 30.0195 56.6281 32.1725 52.3687 35.7729C48.0838 39.3951 44.5596 43.6419 43.0774 49.2982ZM108.98 58.8443C108.909 51.3132 106.474 44.7119 101.018 39.3936C96.1753 34.6727 90.7286 31.0319 83.7356 30.3658C96.2236 36.2775 104.627 45.7395 108.98 58.8443ZM85.1877 33.9466C85.9009 34.9296 86.9819 35.4349 87.8666 36.1885C92.9492 40.5183 96.3961 45.9167 98.6846 52.1622C100.941 58.3202 101.374 64.6722 100.889 71.101C100.585 75.1283 99.5875 79.0581 98.1342 82.8503C98.0207 83.1464 97.6539 83.5235 98.0798 83.7904C98.4349 84.0125 98.6057 83.5583 98.8243 83.3716C101.119 81.411 102.962 79.0551 104.462 76.4667C105.836 74.0953 107.006 71.6782 106.84 68.7243C106.095 55.5258 100.649 44.8575 90.0529 36.886C88.5356 35.7445 86.94 34.7093 85.1877 33.9466ZM103.996 83.3444C103.464 83.313 103.158 83.5125 102.949 83.774C101.807 85.1996 100.333 86.1693 98.8169 87.1599C97.9442 87.7302 97.0622 88.2912 96.1674 88.835C94.7159 89.7173 93.94 91.2012 92.9183 92.4847C89.8791 96.3019 86.3836 99.6362 82.237 102.279C77.2879 105.434 72.0436 107.488 66.0822 107.75C62.8945 107.89 59.8911 107.594 56.8427 106.637C51.9201 105.091 47.9512 102.203 44.5716 98.4559C39.5152 92.8496 36.9319 86.0598 35.4955 78.7613C35.387 78.2089 35.2218 77.6677 35.0828 77.1215C34.699 78.4863 34.7566 79.8146 34.7336 81.1404C34.6383 86.6774 36.1055 91.8881 38.842 96.5774C41.5079 101.146 45.3879 104.671 50.3007 106.916C54.7424 108.945 59.3873 109.929 64.2662 109.675C69.6289 109.396 74.7311 108.02 79.6311 105.855C87.942 102.184 95.1548 97.092 100.503 89.6197C101.888 87.6846 103.085 85.6319 103.996 83.3444ZM55.5867 41.7252C55.3228 41.8355 55.1684 41.8625 55.0632 41.9492C51.9712 44.5051 49.245 47.4271 46.6692 50.4861C44.6907 52.8364 43.0059 55.4119 41.4668 58.0623C40.4206 59.8649 39.4168 61.7264 39.1842 63.8774C38.619 69.1027 38.7215 74.2963 39.7748 79.4622C41.2769 86.8306 44.0391 93.5708 49.3251 99.1021C52.016 101.918 55.224 103.928 58.9148 105.055C64.8927 106.881 70.4951 105.352 75.8999 102.758C79.3969 101.079 82.4703 98.7448 85.3352 96.1666C86.6403 94.9925 87.8933 93.6992 88.9244 92.0063C87.0841 92.2163 85.4899 92.6239 83.8523 92.7966C78.2796 93.3846 73.0522 92.257 68.1656 89.6582C61.517 86.1228 57.0589 80.6334 54.5449 73.5772C51.3416 64.5869 51.5734 55.5101 54.0754 46.4132C54.4984 44.8752 55.0517 43.3729 55.5867 41.7252ZM69.9909 33.6057C67.7593 33.9753 66.0435 34.674 64.5424 35.8883C63.0232 37.1169 62.1064 38.7686 61.1207 40.4271C59.7684 42.7018 58.8366 45.1607 58.1195 47.6251C57.4855 49.8028 57.05 52.098 56.7927 54.4097C56.1827 59.8825 56.092 65.2815 57.6583 70.6378C59.2917 76.2255 61.9841 81.1255 66.4084 85.0013C73.5773 91.2813 82.4833 92.3459 90.9006 88.5711C91.4481 88.3257 91.952 88.0245 92.2681 87.493C94.3321 84.0252 95.8008 80.2863 96.715 76.3894C97.9531 71.1125 98.1369 65.7373 97.4249 60.3427C96.4054 52.6163 93.6199 45.6712 88.2616 39.9166C85.4852 36.9353 82.4627 34.2309 78.2482 33.4287C76.9909 33.1895 75.5896 32.7129 74.5711 33.7569C73.4572 34.8987 72.4044 36.1866 71.6623 37.5894C68.5126 43.5446 67.8514 49.8176 69.7667 56.2944C70.5112 58.8125 72.1061 60.7567 74.3341 62.1793C74.7576 62.4499 75.6303 62.6293 75.3379 63.2491C75.0804 63.7958 74.2608 63.64 73.6626 63.4684C73.4398 63.4044 73.2266 63.2868 73.0281 63.1633C70.5335 61.6103 68.4859 59.6163 67.3708 56.8627C65.0039 51.0177 65.271 45.1033 67.1135 39.1821C67.7103 37.2636 68.6928 35.5268 69.9909 33.6057ZM42.5813 42.2088C42.2455 42.2168 42.1235 42.494 41.9921 42.7195C40.7528 44.8504 39.6198 47.0411 38.8581 49.3867C38.5971 50.1898 37.8815 50.879 38.082 51.8686C38.5525 51.6228 38.7606 51.2855 38.7822 50.8128C38.8189 50.0045 39.2287 49.3235 39.559 48.6162C40.5597 46.474 41.5576 44.3306 42.5563 42.1874C43.9799 40.3205 45.404 38.4535 46.8277 36.5868C45.8584 37.4546 44.9141 38.3327 44.1912 39.4174C43.5932 40.3141 42.7244 41.0505 42.5813 42.2088ZM30.7666 80.3165C30.8546 76.2274 31.4153 72.1952 32.8326 68.3775C34.3207 64.3693 35.0755 60.2163 36.0016 56.0772C37.6863 48.5444 40.5779 41.5373 45.9994 35.8292C50.5323 31.0567 56.019 27.9656 62.5576 26.999C67.3299 26.2934 72.0846 26.562 76.7285 28.0227C77.2103 28.1741 77.7075 28.3109 78.2278 28.2231C82.7526 27.461 87.0542 28.2646 91.2204 30.0568C96.3077 32.2453 100.81 35.2751 104.556 39.3725C107.432 42.5173 109.703 46.0765 111.036 50.1185C112.553 54.7156 113.217 59.4392 112.282 64.2931C112.062 65.4339 112.151 66.7036 111.821 67.7584C111.414 69.0571 111.236 70.4003 110.812 71.675C110.088 73.8539 109.837 76.1257 109.34 78.3483C108.715 81.1449 107.656 83.7885 106.408 86.3502C104.675 89.9102 102.489 93.2194 99.6757 95.9819C97.1713 98.4414 94.584 100.829 91.4647 102.632C89.2358 103.921 87.1032 105.392 84.788 106.552C77.3113 110.298 69.4348 112.265 61.0398 111.752C54.553 111.355 48.5783 109.369 43.3127 105.502C35.9578 100.099 31.9236 92.7849 31.0014 83.7318C30.886 82.5972 30.8433 81.4551 30.7666 80.3165Z" fill="black"/>
<path fill-rule="evenodd" clip-rule="evenodd" d="M147.716 109.133C147.694 109.195 147.638 109.35 147.568 109.546C147.63 109.576 147.697 109.608 147.791 109.654C147.839 109.827 148.102 110.01 147.942 110.244C147.798 110.454 148.178 110.677 147.887 110.848C147.937 111.289 147.626 111.608 147.421 111.916C147.235 112.196 147.19 112.546 146.909 112.789C146.664 113 146.527 113.336 146.342 113.618C146.18 113.625 146.031 113.631 145.823 113.641C145.861 113.76 145.889 113.85 145.933 113.991C145.877 114.054 145.785 114.158 145.686 114.27C145.747 114.459 145.805 114.636 145.873 114.844C145.776 114.955 145.68 115.064 145.576 115.183C145.658 115.213 145.735 115.24 145.867 115.287C145.716 115.393 145.593 115.481 145.463 115.573C145.488 115.603 145.528 115.649 145.589 115.721C145.147 115.885 144.753 115.489 144.265 115.68C143.963 115.898 143.739 116.341 143.292 116.505C143.119 116.569 143.267 116.885 142.971 116.848C142.865 116.835 142.943 117.174 142.696 117.108C142.604 117.416 142.33 117.539 142.113 117.733C141.934 117.893 141.77 118.102 141.625 118.311C141.505 118.485 141.376 118.654 141.248 118.823C141.133 118.976 140.997 119.117 140.902 119.282C140.821 119.422 140.828 119.662 140.719 119.725C140.572 119.811 140.471 119.903 140.44 120.101C140.295 120.015 140.207 119.962 140.118 119.909C139.842 120.044 139.566 120.173 139.291 119.835V119.134C138.762 118.836 138.209 118.576 137.962 117.903C137.981 117.68 137.873 117.366 138.087 117.106C137.777 116.486 138.046 115.962 138.345 115.445C138.704 114.824 139.176 114.293 139.729 113.804C139.404 113.316 139.064 112.861 138.787 112.371C138.596 112.034 138.386 111.667 138.375 111.281C138.364 110.882 138.239 110.465 138.477 110.06C138.583 109.879 138.481 109.616 138.6 109.377C138.672 109.233 138.716 109.074 138.826 108.936C138.886 108.862 138.883 108.737 138.932 108.54C139.042 108.438 139.318 108.301 139.376 108.101C139.459 107.81 139.831 107.921 139.826 107.581C139.922 107.654 139.965 107.686 140.031 107.736C140.185 107.691 140.359 107.639 140.541 107.586C140.607 107.711 140.662 107.816 140.73 107.944C140.597 108.185 140.451 108.448 140.284 108.751C140.615 108.718 140.87 108.693 141.088 108.671C141.176 108.76 141.224 108.807 141.276 108.86C141.187 109.035 141.097 109.211 140.978 109.445C141.188 109.467 141.351 109.483 141.552 109.504C141.503 109.74 141.453 109.977 141.404 110.21C141.319 110.286 141.227 110.368 141.132 110.453C141.192 110.513 141.217 110.545 141.222 110.542C141.31 110.494 141.395 110.441 141.498 110.379C141.533 110.472 141.555 110.53 141.583 110.604C141.394 110.7 141.214 110.791 141.009 110.895C141.104 110.927 141.18 110.952 141.319 110.999C141.16 111.158 141.019 111.3 140.834 111.485C141.069 111.67 141.278 111.835 141.501 112.011C141.83 112.074 142.094 111.935 142.353 111.712C142.951 111.195 143.608 110.745 144.198 110.226C144.801 109.694 145.443 109.173 145.873 108.461C145.973 108.294 146.15 108.174 146.301 108.022H147.005C147.043 108.071 147.109 108.155 147.178 108.241C147.101 108.461 147.022 108.687 146.919 108.98C147.132 108.922 147.305 108.874 147.531 108.812C147.566 108.874 147.621 108.969 147.716 109.133Z" fill="black"/>
<path fill-rule="evenodd" clip-rule="evenodd" d="M105.302 123.209C105.085 123.276 104.907 123.331 104.676 123.403C104.732 123.282 104.769 123.203 104.816 123.102C104.663 122.871 104.489 122.664 104.172 122.71C104.147 122.616 104.132 122.556 104.11 122.472H103.557C103.502 122.417 103.454 122.391 103.442 122.353C103.357 122.098 103.34 121.795 103.186 121.595C102.989 121.338 103.087 121.086 103.078 120.837C103.07 120.635 103.152 120.428 103.202 120.225C103.38 119.5 103.656 118.81 104.007 118.154C104.224 117.75 104.466 117.357 104.732 116.985C104.991 116.62 105.295 116.288 105.589 115.93C105.509 115.879 105.422 115.82 105.331 115.766C104.455 115.248 103.687 114.595 102.975 113.871C102.639 113.529 102.637 113.071 102.539 112.649C102.499 112.48 102.533 112.294 102.533 112.116C102.712 111.773 103.074 111.744 103.425 111.605C103.544 111.813 103.665 112.027 103.802 112.268C103.827 112.25 103.868 112.22 103.943 112.165C103.989 112.21 104.069 112.254 104.092 112.318C104.232 112.716 104.556 112.918 104.901 113.09C105.603 113.441 106.311 113.778 107.064 114.143C107.24 113.957 107.416 113.671 107.672 113.529C107.908 113.397 107.92 113.02 108.288 113.056C108.235 112.991 108.199 112.947 108.144 112.88C108.257 112.801 108.371 112.721 108.53 112.61C108.581 112.499 108.657 112.33 108.732 112.165C108.846 112.158 108.952 112.152 109.104 112.143C109.039 112.06 109.005 112.016 108.953 111.949C109.237 111.907 109.256 111.614 109.434 111.456C109.623 111.289 109.757 111.06 109.935 110.83C109.975 110.859 110.017 110.89 110.095 110.948C110.13 110.866 110.163 110.789 110.204 110.692C110.252 110.731 110.297 110.767 110.377 110.832C110.465 110.363 110.731 109.986 111.014 109.648C111.305 109.299 111.567 108.898 112.044 108.665C112.104 108.714 112.184 108.78 112.274 108.854C112.086 109.216 111.903 109.575 111.517 109.764V110.299C111.609 110.276 111.701 110.28 111.721 110.245C111.798 110.1 111.853 109.944 111.884 109.87C112.201 109.608 112.461 109.394 112.788 109.125C112.807 109.375 112.819 109.538 112.83 109.694C112.731 109.735 112.655 109.766 112.575 109.799C112.595 109.827 112.621 109.883 112.635 109.88C112.797 109.847 112.957 109.804 113.155 109.756C113.211 109.854 113.279 109.974 113.347 110.095C113.311 110.136 113.267 110.184 113.219 110.237C113.247 110.43 113.48 110.601 113.3 110.823C113.248 110.775 113.201 110.733 113.154 110.69C113.131 110.731 113.089 110.775 113.097 110.803C113.122 110.881 113.168 110.953 113.219 111.055C113.182 111.394 112.911 111.619 112.659 111.849C112.421 112.066 112.159 112.256 111.853 112.502C111.979 112.574 112.088 112.637 112.212 112.708C112.135 112.856 112.088 112.945 112.039 113.039C112.068 113.071 112.11 113.117 112.176 113.19C112.031 113.213 111.909 113.233 111.733 113.262C111.781 113.384 111.822 113.487 111.869 113.608H111.424C111.341 113.777 111.269 113.925 111.201 114.066C111.264 114.134 111.309 114.182 111.373 114.251C111.237 114.277 111.114 114.299 110.936 114.333C110.979 114.446 111.019 114.549 111.065 114.671C110.951 114.688 110.828 114.706 110.668 114.729C110.715 114.856 110.753 114.959 110.816 115.13C110.642 115.062 110.516 115.013 110.363 114.953C110.291 115.091 110.217 115.231 110.145 115.367C110.171 115.416 110.181 115.469 110.211 115.485C110.264 115.514 110.336 115.509 110.389 115.538C110.593 115.652 110.641 115.917 110.842 116.031C111.059 116.153 111.154 116.363 111.292 116.551C111.416 116.719 111.509 116.861 111.495 117.075C111.49 117.148 111.555 117.225 111.596 117.317C111.56 117.377 111.51 117.462 111.441 117.579C111.26 117.6 111.129 117.842 110.799 117.714C110.224 117.491 109.624 117.291 108.999 117.216C108.964 117.212 108.936 117.156 108.879 117.1C108.696 117.306 108.515 117.51 108.287 117.767C108.284 117.792 108.271 117.897 108.258 118.01C108.13 118.03 108.007 118.05 107.817 118.08C107.943 118.256 108.037 118.388 108.177 118.584C108.018 118.538 107.913 118.508 107.779 118.468C107.752 118.501 107.695 118.568 107.634 118.64C107.712 118.854 107.65 118.984 107.399 119.127C107.324 119.396 107.252 119.655 107.192 119.872C107.079 119.913 107.015 119.937 106.934 119.967L107.08 120.113C106.88 120.266 106.651 120.39 106.496 120.575C106.356 120.743 106.298 120.978 106.189 121.215C106.2 121.232 106.244 121.297 106.313 121.401C106.166 121.553 106.021 121.702 105.882 121.845C105.936 121.913 105.976 121.963 106.045 122.049C105.947 122.161 105.851 122.271 105.743 122.394V122.784C105.585 122.936 105.425 123.09 105.302 123.209Z" fill="black"/>
<path fill-rule="evenodd" clip-rule="evenodd" d="M121.738 125.872C122.047 126.246 122.047 126.246 122.422 126.039C122.433 126.159 122.429 126.263 122.455 126.359C122.473 126.427 122.531 126.485 122.568 126.543C122.521 126.591 122.489 126.622 122.449 126.662C122.542 126.706 122.631 126.748 122.777 126.816C122.625 127.032 122.482 127.236 122.339 127.44C122.523 127.772 122.133 127.831 122.077 128.009C121.99 128.283 121.657 128.342 121.647 128.636C121.636 128.978 121.285 129.02 121.133 129.219C121 129.392 120.765 129.506 120.735 129.727C120.787 129.817 120.829 129.888 120.897 130.006C120.7 130.117 120.527 130.215 120.355 130.313L119.938 130.51C119.811 130.66 119.684 130.809 119.515 131.008V131.14C119.088 131.453 118.69 131.746 118.227 132.087C118.359 132.154 118.44 132.195 118.572 132.263C118.389 132.52 118.203 132.78 118.003 133.06C118.516 133.235 118.999 133.4 119.497 133.57C119.448 133.669 119.406 133.752 119.35 133.866C119.572 133.945 119.78 134.019 120.017 134.103V134.394C120.166 134.531 120.296 134.651 120.432 134.775C120.44 134.932 120.447 135.082 120.455 135.226L120.697 135.468L120.083 135.98C119.938 136.141 119.787 136.111 119.624 136.003C119.575 135.971 119.506 135.952 119.446 135.953C118.756 135.969 118.132 135.706 117.505 135.476C117.041 135.307 116.596 135.091 116.115 134.884C115.984 135.014 115.78 135.113 115.754 135.383C115.476 135.449 115.192 135.516 114.926 135.579C114.788 135.44 114.679 135.33 114.569 135.218C114.611 135.172 114.654 135.125 114.718 135.054C114.651 134.917 114.58 134.768 114.537 134.68C114.331 134.712 114.148 134.74 113.97 134.768C113.871 134.573 113.782 134.397 113.691 134.217C113.647 134.261 113.616 134.292 113.604 134.304C113.456 134.154 113.307 134.002 113.101 133.794C113.165 133.33 112.869 132.797 112.948 132.222C112.965 132.101 112.873 131.927 112.775 131.835C112.381 131.465 112.364 130.931 112.179 130.475C112.108 130.302 112.033 130.081 112.026 129.871C112.016 129.538 111.977 129.195 112.034 128.871C112.124 128.359 112.222 127.812 112.818 127.61C113.016 127.544 113.233 127.536 113.493 127.493V128.535C113.719 128.39 113.87 128.292 114.096 128.147C114.128 128.239 114.165 128.349 114.203 128.458C114.236 128.433 114.27 128.408 114.303 128.382V128.997C114.418 128.939 114.501 128.896 114.58 128.856C114.863 129.105 114.856 129.422 114.817 129.749C114.912 129.782 114.989 129.81 115.113 129.853C115.06 129.997 115.007 130.139 114.944 130.311C115.021 130.297 115.059 130.301 115.081 130.283C115.133 130.242 115.169 130.169 115.226 130.147C115.796 129.93 116.084 129.323 116.657 129.112C116.772 128.697 117.209 128.609 117.465 128.329C117.731 128.039 118.106 127.849 118.427 127.607C118.737 127.372 118.912 126.977 119.317 126.853C119.584 126.368 119.967 126.001 120.443 125.727C120.427 125.399 120.878 125.358 120.867 125.012H121.47C121.513 125.055 121.576 125.118 121.639 125.181C121.351 125.324 121.245 125.603 121.061 125.898C121.46 125.98 121.69 125.494 122.066 125.719C121.957 125.77 121.868 125.811 121.738 125.872Z" fill="black"/>
<path fill-rule="evenodd" clip-rule="evenodd" d="M120.188 118.808C120.157 118.496 120.597 118.461 120.388 118.17C120.335 118.218 120.288 118.26 120.241 118.302C120.225 118.286 120.198 118.272 120.195 118.254C120.145 117.927 120.165 117.616 120.398 117.349C120.653 117.056 120.907 116.761 121.152 116.459C121.229 116.363 121.277 116.244 121.353 116.11C121.232 115.794 121.066 115.467 120.922 115.142C120.767 114.793 120.771 114.415 120.603 114.07C120.513 113.886 120.747 113.564 120.692 113.34C120.63 113.089 120.482 112.875 120.699 112.638C120.703 111.976 121.153 111.563 121.547 111.104H122.661C122.726 111.165 122.79 111.227 122.895 111.326C122.725 111.541 122.556 111.757 122.368 111.996C122.389 112.041 122.439 112.147 122.507 112.29C122.569 112.29 122.689 112.326 122.732 112.284C122.918 112.101 123.133 112.175 123.329 112.154C123.401 112.31 123.462 112.441 123.529 112.586C123.428 112.712 123.325 112.842 123.167 113.038C123.405 113.068 123.565 113.089 123.775 113.115V113.756C124.226 113.771 124.275 113.224 124.656 113.226C124.828 112.963 125.08 112.781 125.306 112.571C125.568 112.33 125.817 112.074 126.063 111.817C126.29 111.58 126.521 111.344 126.724 111.088C126.934 110.824 127.115 110.537 127.236 110.363C127.512 110.264 127.668 110.208 127.861 110.139C127.924 110.229 128.028 110.32 128.054 110.43C128.075 110.515 128.007 110.627 127.962 110.719C127.91 110.823 127.839 110.917 127.84 111.1C128.035 111.017 128.23 110.935 128.444 110.845C128.559 111.068 128.681 111.306 128.867 111.668C128.867 111.661 128.856 111.792 128.871 111.921C128.882 112.021 128.924 112.118 128.962 112.246C128.935 112.292 128.887 112.377 128.842 112.456C128.909 112.529 128.954 112.577 128.994 112.62C128.607 113.24 128.258 113.882 127.834 114.482C127.477 114.986 127.527 115.021 127.266 115.164C127.308 115.21 127.35 115.257 127.383 115.294C126.855 115.887 126.33 116.475 125.798 117.072V117.293C126.216 117.56 126.621 117.817 127.044 118.087C126.982 118.207 126.945 118.28 126.887 118.394C127.047 118.532 127.155 118.796 127.464 118.699C127.532 118.833 127.588 118.943 127.642 119.052C127.603 119.106 127.555 119.173 127.488 119.266C127.656 119.434 127.806 119.584 127.969 119.747C127.907 119.907 127.854 120.043 127.796 120.194C127.839 120.267 127.89 120.356 127.938 120.438C127.914 120.488 127.907 120.541 127.878 120.56C127.812 120.603 127.715 120.611 127.667 120.666C127.38 120.99 127.328 121.008 126.967 120.885C126.499 120.725 125.995 120.631 125.568 120.397C124.995 120.084 124.48 119.665 123.888 119.256C123.639 119.44 123.361 119.692 123.092 119.979C122.832 120.256 122.49 120.477 122.014 120.618C122.098 120.48 122.132 120.423 122.206 120.3C121.908 120.355 121.658 120.402 121.408 120.448L121.365 120.362C121.515 120.245 121.666 120.128 121.816 120.011L121.584 119.778H121.127C121.066 119.625 120.999 119.454 120.919 119.253H120.365C120.289 119.061 120.22 118.889 120.188 118.808Z" fill="black"/>
<path fill-rule="evenodd" clip-rule="evenodd" d="M123.087 105.694C122.858 105.749 122.655 105.797 122.37 105.865C122.077 105.649 121.727 105.379 121.366 105.127C120.935 104.825 120.56 104.441 120.068 104.228C119.954 104.179 119.834 104.143 119.676 104.086C119.484 103.799 119.462 103.265 118.899 103.324C118.644 103.091 118.613 102.687 118.241 102.648C118.119 102.44 118.042 102.203 117.882 102.054C117.152 101.377 116.623 100.563 116.168 99.5808C116.129 99.2776 116.129 98.8735 116.063 98.4681C115.96 97.8297 116.3 97.2815 116.853 96.9276C117.006 96.8301 117.085 96.6156 117.338 96.6384C117.515 96.6543 117.701 96.5605 117.935 96.5029C118.005 96.5646 118.097 96.6463 118.213 96.7492C118.024 97.0656 117.668 97.2653 117.641 97.6903C118.06 97.8302 118.248 97.3643 118.67 97.3107C118.722 97.3567 118.813 97.4381 118.899 97.515C118.749 97.7393 118.649 97.8903 118.463 98.1684C118.751 98.0772 118.957 98.0758 119.032 97.976C119.224 97.7236 119.533 97.6224 119.713 97.3415C119.88 97.08 120.155 96.8852 120.435 96.7029C120.832 96.4453 121.154 96.075 121.526 95.7755C122.072 95.3354 122.585 94.8531 123.194 94.4872C123.435 94.3428 123.613 94.0914 123.813 93.8818C123.995 93.6912 124.284 93.6078 124.341 93.3235H125.24V93.9034C125.215 93.9284 125.129 94.0147 125.025 94.1188C125.144 94.0975 125.263 94.0806 125.379 94.0541C125.498 94.0272 125.614 93.9909 125.794 93.9416C125.767 94.3732 125.788 94.7553 126.099 95.0337C126.034 95.1221 125.996 95.1726 125.921 95.2748C126.016 95.3273 126.126 95.3876 126.331 95.5C126.12 95.5579 126.048 95.5775 125.95 95.6044C125.987 95.6897 126.037 95.7694 126.056 95.8559C126.074 95.9412 126.06 96.0331 126.06 96.1206C125.812 96.4607 125.564 96.8009 125.292 97.1744C125.242 97.18 125.136 97.1915 124.981 97.2085C125.029 97.2732 125.057 97.3136 125.095 97.366C125.055 97.4616 125.011 97.5677 124.961 97.6859C124.373 97.6574 124.369 98.2635 124.005 98.4995C124.082 98.6007 124.121 98.651 124.138 98.674C123.896 98.9161 123.652 99.1602 123.405 99.4065C123.425 99.4247 123.394 99.396 123.407 99.4082C123.298 99.5178 123.184 99.631 123.071 99.7445C123.034 99.7158 122.998 99.6874 122.961 99.6587V100.011C122.883 99.9467 122.838 99.9094 122.737 99.8263C122.759 99.9763 122.774 100.076 122.795 100.216C122.628 100.432 122.428 100.692 122.21 100.974C122.112 100.903 122.046 100.853 121.986 100.81C121.746 101.091 121.499 101.38 121.25 101.671C121.346 101.719 121.434 101.762 121.563 101.826C121.443 101.979 121.34 102.109 121.243 102.232C121.259 102.286 121.259 102.336 121.284 102.364C121.691 102.821 122.173 103.229 122.491 103.74C122.848 104.316 123.295 104.91 123.087 105.694Z" fill="black"/>
<path fill-rule="evenodd" clip-rule="evenodd" d="M132.361 96.0308C132.402 95.9897 132.434 95.958 132.466 95.9255C132.442 95.8946 132.422 95.859 132.393 95.8328C132.22 95.6747 132.001 95.5392 131.861 95.3843C131.723 95.2329 131.569 95.1174 131.43 94.9787C131.245 94.7942 131.039 94.53 131.029 94.2925C131.012 93.8676 130.986 93.4414 131.087 92.9961C131.261 92.2273 131.664 91.6452 132.197 91.1142C132.874 90.44 133.549 89.7636 134.259 89.0533C133.989 88.8213 133.976 88.3831 133.549 88.2978C133.369 87.949 133.191 87.6003 133.011 87.2516C132.846 86.9298 132.875 86.5825 132.877 86.2387C132.879 85.9938 132.878 85.749 132.878 85.5042C133.103 85.2167 133.328 84.9292 133.55 84.6469H134.663C134.485 84.9515 134.332 85.2121 134.182 85.4679C134.594 85.7669 134.745 85.1192 135.107 85.3167C135.333 85.6257 134.912 85.7713 134.779 86.0703C135.036 86.0088 135.185 85.9728 135.368 85.9289C135.476 86.2465 135.422 86.5244 135.251 86.8229C135.343 86.8585 135.414 86.8864 135.523 86.9283C135.6 87.0111 135.44 87.0231 135.412 87.1452C135.52 87.3094 135.65 87.5094 135.812 87.7567C136.915 86.5994 138.321 85.8238 139.181 84.5021H139.851C139.8 84.7226 139.755 84.9153 139.693 85.1787C139.879 85.113 140.023 85.0626 140.219 84.9932V85.5118C140.326 85.54 140.387 85.5556 140.447 85.5716C140.464 85.6091 140.49 85.6456 140.495 85.6846C140.503 85.7502 140.486 85.8198 140.499 85.8843C140.635 86.5783 140.289 87.129 139.927 87.6491C139.535 88.2118 139.079 88.7306 138.619 89.3092C138.947 89.7035 139.473 89.8952 139.935 90.2633C139.943 90.324 139.957 90.4265 139.974 90.5444C140.096 90.6975 140.294 90.8458 140.35 91.036C140.473 91.4529 140.778 91.8411 140.571 92.3792C140.52 92.4023 140.409 92.4569 140.295 92.5054C140.182 92.5537 140.066 92.5954 139.936 92.6456C139.76 92.4657 139.36 92.5228 139.413 92.1726C139.005 92.0548 138.646 91.9508 138.298 91.8501C138.219 91.7117 138.146 91.5862 138.065 91.4443H137.327C137.308 91.3646 137.294 91.3043 137.276 91.2298C137.003 91.0198 136.774 91.2671 136.614 91.3097C136.396 91.5626 136.229 91.7563 136.044 91.9697C135.992 91.9295 135.949 91.8972 135.876 91.8415C135.797 91.9531 135.712 92.0731 135.608 92.2194C135.594 92.2016 135.628 92.2449 135.678 92.3091C135.368 92.3868 135.341 92.6981 135.205 92.9542C135.097 92.8883 135.027 92.8449 134.919 92.7785C134.901 92.8936 134.883 93.0064 134.861 93.1397C134.815 93.1522 134.755 93.1684 134.648 93.1975C134.619 93.4683 134.581 93.7982 134.179 93.7083C134.045 93.883 133.819 94.0455 133.834 94.1808C133.88 94.5873 133.54 94.7817 133.447 95.0996C133.403 95.5012 133.409 95.501 133.534 95.7693C133.243 96.0012 132.915 96.1573 132.537 96.2536C132.488 96.1914 132.433 96.1222 132.361 96.0308Z" fill="black"/>
<path fill-rule="evenodd" clip-rule="evenodd" d="M93.2732 88.4795C93.1068 88.5001 93.0066 88.5126 92.8801 88.5282C92.9571 88.6135 93.001 88.6618 93.071 88.7395C92.9051 89.048 92.5907 89.2331 92.3775 89.5029L92.4819 89.6073C92.312 89.7406 92.142 89.8739 91.9974 89.9874C91.9175 90.1979 92.0881 90.4354 91.807 90.5658C92.0559 90.7327 92.2836 90.8817 92.5074 91.0361C93.209 91.5208 93.9594 91.9367 94.5378 92.5896C94.8691 92.9633 95.1811 93.3246 95.187 93.8613C95.188 93.9517 95.2799 94.0409 95.3532 94.1735C95.1515 94.3012 94.9625 94.4206 94.7258 94.5703C93.3918 93.7888 92.0128 93.0923 90.748 92.0715C90.6573 92.1232 90.4593 92.1669 90.4228 92.2686C90.2779 92.6715 89.9941 92.9543 89.7052 93.2427C89.6699 93.278 89.6831 93.3616 89.6736 93.4233C89.5498 93.4371 89.4447 93.4483 89.2842 93.466C89.315 93.5716 89.3413 93.6613 89.3871 93.8184C89.1298 94.0338 88.9376 94.3544 88.8364 94.7524C88.7776 94.9835 88.556 95.1729 88.3575 95.4521V96.9044C88.2311 96.9125 88.1257 96.9191 88.0063 96.9267C87.9806 96.999 87.9532 97.0764 87.9203 97.1693H87.4596C87.3875 96.9605 87.3138 96.7463 87.2285 96.4995C87.1003 96.5559 86.9724 96.612 86.8199 96.6789C86.7886 96.5819 86.7638 96.5059 86.7391 96.4299C86.7013 96.4142 86.6597 96.3794 86.6256 96.3858C86.3428 96.4395 86.1492 96.2003 86.1144 96.0481C85.9725 95.4285 85.5715 94.8159 85.9566 94.1507C85.9637 93.492 86.3727 92.9893 86.6045 92.4163C86.6803 92.2293 87.0057 92.2622 86.9175 91.9392C86.8812 91.8063 87.1224 91.5958 87.241 91.4231C87.3486 91.2665 87.4498 91.104 87.5735 90.9611C87.7189 90.7932 87.8958 90.6525 88.0399 90.4839C88.1598 90.3433 88.2522 90.1793 88.3695 90.0068C87.5574 89.3968 87.0606 88.5302 86.4913 87.7222C86.3087 86.9404 85.9933 86.1812 86.1163 85.2658C86.3043 85.0499 86.5447 84.7735 86.8033 84.4767C87.0895 84.5355 87.4113 84.3581 87.6728 84.6563C87.5015 84.8872 87.3314 85.1163 87.1596 85.3479C87.2069 85.3979 87.2508 85.445 87.2942 85.491C87.6569 85.566 87.7897 85.0381 88.1686 85.1604C88.225 85.2697 88.2811 85.3793 88.3399 85.493C88.2232 85.5678 88.0897 85.6535 87.9495 85.7432C88.035 85.829 88.098 85.892 88.161 85.955C88.3502 85.7592 88.534 85.7567 88.7563 86.0246C88.7362 86.1738 88.8519 86.3895 88.6286 86.5632C88.7212 86.6078 88.8119 86.6515 88.9416 86.7135C88.8349 86.8568 88.7403 86.9838 88.6435 87.1139C88.7337 87.146 88.8112 87.1732 88.9732 87.2308C88.8242 87.271 88.7536 87.2899 88.6301 87.3232C88.6431 87.4318 88.6171 87.5803 88.6788 87.6634C88.9347 88.0075 89.217 88.3317 89.5197 88.6996C89.6863 88.5501 89.8143 88.4388 89.938 88.3234C90.6693 87.6416 91.2813 86.824 92.1883 86.3412C92.1834 86.09 92.4463 86.1077 92.5596 85.9731C92.6877 85.8209 92.8301 85.6807 92.922 85.5825H93.3713C93.1676 85.8822 92.8206 86.0515 92.9338 86.4833C93.224 86.3103 93.508 86.141 93.8541 85.9349C93.8232 86.1326 93.7992 86.2851 93.7722 86.4584C93.8933 86.5194 94.0731 86.6108 94.2663 86.7083C94.2165 86.8115 94.1749 86.8975 94.1263 86.9982C94.1962 87.013 94.257 87.0255 94.3204 87.0387C94.327 87.0647 94.3525 87.109 94.3403 87.1254C94.1776 87.345 93.9597 87.5391 93.856 87.7825C93.7261 88.0878 93.4396 88.2253 93.2732 88.4795Z" fill="black"/>
<path fill-rule="evenodd" clip-rule="evenodd" d="M105.473 95.3016C106.006 94.6482 106.456 94.1051 106.896 93.5544C107.313 93.0329 107.67 92.4697 107.994 91.8926C107.953 91.8414 107.912 91.7919 107.843 91.7071C107.957 91.5786 108.069 91.4512 108.188 91.3162H108.628C108.793 91.4809 108.925 91.7159 109.114 91.7759C109.344 91.849 109.376 92.033 109.469 92.1705C109.791 92.6467 110.015 93.13 109.768 93.7505C109.616 94.1321 109.461 94.5139 109.303 94.8937C109.256 95.0082 109.221 95.128 109.16 95.3023L108.823 95.64V96.0605C108.559 96.5392 108.339 96.9382 108.098 97.3744C108.431 97.6003 108.737 97.8182 109.053 98.0216C109.678 98.4248 110.195 98.9255 110.504 99.6134C110.571 99.7614 110.601 99.9258 110.67 100.157C110.647 100.21 110.589 100.339 110.524 100.481C110.387 100.546 110.238 100.615 110.122 100.669C109.808 100.56 109.53 100.479 109.264 100.369C108.998 100.258 108.744 100.119 108.485 99.992C108.441 99.605 108 99.7614 107.818 99.4982C107.669 99.282 107.338 99.1921 107.047 99.0228C106.176 99.9114 105.409 100.882 104.706 101.905C104.651 101.983 104.669 102.111 104.653 102.215C104.346 102.452 104.043 102.416 103.739 102.201V101.988C103.343 101.751 102.972 101.529 102.567 101.286C102.372 101.059 102.471 100.702 102.345 100.425C102.204 100.117 102.323 99.8192 102.27 99.5928C102.712 98.6074 103.235 97.7442 103.984 96.9994V96.5446C103.551 96.2429 103.282 95.7726 103.009 95.3114C102.918 95.1567 102.904 94.9548 102.862 94.7729C102.777 94.4029 102.65 94.0448 102.661 93.6517C102.683 92.8998 103.11 92.3634 103.827 92.0935C104.28 91.9235 104.72 92.009 105.206 91.9612C104.945 92.5035 104.317 92.4572 103.95 92.9118C104.583 92.8839 104.968 92.2879 105.614 92.4016C105.589 92.5535 105.564 92.7057 105.537 92.866C105.655 92.9077 105.829 92.9692 105.996 93.0285V93.8772C105.824 94.1774 105.635 94.4769 105.481 94.7935C105.431 94.8952 105.473 95.0418 105.473 95.3016Z" fill="black"/>
<path fill-rule="evenodd" clip-rule="evenodd" d="M116.768 86.9818C116.517 87.2955 116.289 87.5822 116.036 87.8988V88.7563C115.801 88.8507 115.573 88.9428 115.314 89.0465C115.009 88.75 114.885 88.3566 114.787 87.9849C114.656 88.0336 114.541 88.0765 114.369 88.1402C114.234 87.9464 114.07 87.7751 113.982 87.5712C113.717 86.9602 113.738 86.3078 113.767 85.6939C113.878 85.441 113.977 85.215 114.101 84.9329C113.916 84.9053 113.752 84.931 113.684 84.8624C113.252 84.4259 112.826 83.9818 112.43 83.513C112.217 83.2601 111.992 82.9741 111.907 82.666C111.783 82.2151 111.78 81.7308 111.722 81.2272C111.925 80.9412 112.091 80.6062 112.349 80.3753C112.586 80.1631 112.924 80.0631 113.29 79.8766C113.375 79.969 113.459 80.0584 113.543 80.1494C113.494 80.1964 112.841 80.825 112.841 80.825C112.888 80.8723 112.935 80.9196 113.005 80.989C113.304 80.7711 113.601 80.4861 114.087 80.6741C113.966 80.8392 113.872 80.9677 113.708 81.1934C113.931 81.1064 114.055 81.0581 114.228 80.9909C114.309 81.1135 114.396 81.2451 114.502 81.4049C114.318 81.5894 114.173 81.7342 113.998 81.9092C114.111 81.9323 114.172 81.945 114.273 81.9658C114.121 82.2212 114.207 82.5744 113.816 82.7047C114.204 83.1814 114.635 83.4441 115.073 83.7348C116.546 82.5131 117.987 81.3179 119.448 80.1067H120.093C119.98 80.3332 119.89 80.5138 119.799 80.6966C119.993 80.8444 120.146 80.6785 120.318 80.604C120.813 81.0664 120.93 81.6438 120.828 82.2879C120.622 82.5521 120.411 82.8234 120.195 83.1003C120.209 83.113 120.241 83.1429 120.329 83.2245C120.21 83.2397 120.096 83.2544 119.981 83.2691C120.026 83.3172 120.071 83.3655 120.115 83.4137H119.867C119.409 84.2757 118.634 84.8621 118.068 85.6473C118.845 86.0801 119.714 86.4022 120.536 86.8921C120.561 87.0156 120.589 87.1558 120.622 87.3214C120.723 87.2146 120.799 87.1344 120.872 87.0572C121.203 87.1019 121.196 87.4822 121.473 87.6214C121.717 87.7435 121.858 88.0674 122.048 88.3052V89.0987C121.983 89.1629 121.92 89.2259 121.832 89.3141C121.144 89.2406 120.575 88.8485 119.948 88.5314C119.936 88.5429 119.889 88.585 119.869 88.6034C119.43 88.4951 119.169 88.0246 118.663 88.0949C118.427 87.7917 118.039 87.7682 117.737 87.5895C117.431 87.4092 117.135 87.2134 116.768 86.9818Z" fill="black"/>
<path fill-rule="evenodd" clip-rule="evenodd" d="M136.232 97.6599C136.37 97.7379 136.478 97.7992 136.638 97.8891C136.602 98.1067 136.565 98.3261 136.52 98.5961C136.632 98.7907 136.726 99.087 137.066 99.2066C137.218 98.9944 137.311 98.7515 137.604 98.6329C137.81 98.5493 137.931 98.2565 138.088 98.0562C138.261 97.8359 138.502 97.6854 138.639 97.4171C138.753 97.1914 139 97.037 139.155 96.8267C139.316 96.6093 139.438 96.363 139.576 96.1297H140.329C140.369 96.341 140.434 96.5498 140.185 96.7679C140.4 96.7777 140.566 96.7853 140.718 96.7921C140.786 97.1039 140.847 97.3862 140.908 97.6622C140.799 97.7046 140.723 97.7345 140.632 97.7697C140.642 97.831 140.64 97.895 140.662 97.9494C140.848 98.4094 140.818 98.5672 140.46 98.9223C140.31 99.0703 140.248 99.3007 140.309 99.4446C140.404 99.6705 140.117 99.5835 140.253 99.7921C140.109 99.6737 140.064 99.6365 139.986 99.5723V99.9445C139.845 99.9717 139.723 99.995 139.578 100.023V100.388C139.407 100.566 139.286 100.692 139.186 100.797C139.419 101.025 139.634 101.236 139.812 101.411V101.914C139.957 102.058 140.107 102.209 140.262 102.364C140.214 102.449 140.183 102.503 140.129 102.597C140.199 102.739 140.285 102.914 140.396 103.14C140.268 103.409 140.125 103.706 139.99 103.989H139.433C138.784 103.617 138.155 103.257 137.527 102.898C137.416 103.069 137.328 103.206 137.253 103.322C137.137 103.266 137.048 103.222 136.894 103.147V103.769C136.691 103.694 136.549 103.641 136.283 103.542C136.392 103.692 136.423 103.733 136.48 103.812C136.358 103.927 136.228 104.049 136.023 104.241C135.982 103.992 135.956 103.837 135.928 103.665C136.022 103.633 136.098 103.606 136.194 103.573C136.204 103.523 136.216 103.462 136.229 103.388C136.145 103.358 136.067 103.332 135.989 103.305C136.018 103.187 136.047 103.068 136.097 102.866C135.973 102.979 135.925 103.023 135.897 103.049C135.612 102.995 135.343 102.945 135.06 102.892C135.016 102.808 134.959 102.699 134.892 102.571C134.943 102.376 135 102.154 135.058 101.927C135.189 101.949 135.355 101.976 135.521 102.004C135.528 101.979 135.534 101.955 135.541 101.93C135.368 101.843 135.195 101.756 135.042 101.679C135.132 101.495 135.221 101.311 135.313 101.119C134.874 100.372 134.395 99.6673 134.124 98.8562C133.961 98.2974 134.154 97.7452 134.234 97.1953C134.297 96.7676 134.65 96.4652 135.037 96.2488C135.092 96.2179 135.145 96.1824 135.233 96.1275H135.897C136.002 96.2324 136.097 96.327 136.163 96.3934C136.032 96.5243 135.899 96.6571 135.82 96.7358V97.147C135.968 97.1088 136.109 97.0723 136.271 97.0304C136.355 97.1095 136.433 97.1823 136.541 97.283C136.428 97.4212 136.334 97.5352 136.232 97.6599Z" fill="black"/>
<path fill-rule="evenodd" clip-rule="evenodd" d="M96.0368 104.525C96.1123 104.6 96.1752 104.663 96.2645 104.752C95.8549 105.102 95.4476 105.45 95.0406 105.799C95.0496 105.822 95.0589 105.846 95.0682 105.869C95.1548 105.844 95.2604 105.842 95.3234 105.789C95.441 105.69 95.5336 105.562 95.6951 105.531C95.9807 105.37 96.2662 105.208 96.5438 105.051C96.786 105.247 96.6093 105.402 96.5051 105.639C96.6637 105.579 96.7664 105.54 96.8769 105.498C96.9252 105.546 96.9882 105.609 97.0514 105.673C97.0516 105.94 97.0516 106.207 97.0516 106.477C96.9737 106.553 96.8943 106.631 96.8102 106.713C96.8225 106.744 96.8257 106.786 96.8485 106.803C97.0004 106.917 97.1521 107.032 97.3124 107.134C97.4847 107.243 97.7258 107.274 97.7324 107.553C97.7332 107.585 97.7876 107.621 97.8234 107.646C97.9609 107.743 98.1219 107.816 98.2339 107.936C98.3456 108.056 98.4091 108.22 98.5221 108.413C98.5221 108.526 98.5221 108.704 98.5218 108.882C98.4113 108.992 98.3013 109.103 98.2091 109.195C97.3663 108.894 96.5333 108.596 95.7005 108.299C95.5155 108.397 95.3163 108.504 95.1168 108.61C95.1084 108.596 95.1001 108.583 95.0918 108.569C94.9185 108.742 94.7452 108.915 94.5239 109.137C94.5208 109.189 94.5144 109.293 94.5063 109.425C94.1553 109.762 93.788 110.116 93.4917 110.401C93.3429 110.863 93.4184 111.337 92.8035 111.434C92.6763 111.23 92.2195 111.198 92.3237 110.724C92.1972 110.687 92.0418 110.642 91.8725 110.593C91.8343 110.619 91.7654 110.665 91.7117 110.7C91.5397 110.519 91.3894 110.359 91.1711 110.128C91.1223 109.711 91.0598 109.178 90.9941 108.616C91.5492 108.016 92.0962 107.425 92.6766 106.797C92.4496 106.655 92.2156 106.536 92.0151 106.376C91.8078 106.209 91.633 106.003 91.4387 105.808C91.4924 105.635 91.547 105.458 91.6058 105.267C91.497 105.23 91.4193 105.203 91.3228 105.17V104.719C91.36 104.681 91.4073 104.634 91.462 104.579C91.6531 104.541 91.8539 104.501 92.1019 104.452C92.7621 104.822 93.4841 105.227 94.1865 105.621C94.8908 105.353 95.3474 104.736 96.0368 104.525Z" fill="black"/>
<path fill-rule="evenodd" clip-rule="evenodd" d="M35.0905 49.7119C34.917 49.6202 34.6432 49.4756 34.3511 49.3212C34.4092 49.2293 34.4491 49.1659 34.5143 49.0627C34.4403 48.9786 34.3369 48.8953 34.28 48.7877C34.2237 48.6806 34.2136 48.5493 34.184 48.4304C34.1031 48.4029 34.0259 48.3767 33.9551 48.3527V48.0628C34.0448 48.0201 34.1357 47.9765 34.2501 47.9219C34.1899 47.8008 34.1352 47.6908 34.0705 47.5616C34.1938 47.4834 34.3144 47.3418 34.4293 47.3467C34.8163 47.3624 35.2175 47.2273 35.5917 47.4307C35.6444 47.4597 35.7142 47.4651 35.7765 47.4665C36.2286 47.4783 36.6725 47.4829 37.1271 47.5827C37.692 47.7062 38.2882 47.6834 38.8695 47.7393C39.0761 47.7591 39.2771 47.8285 39.4825 47.8677C39.667 47.9028 39.8846 47.7849 40.0339 47.9937C40.0496 48.0157 40.1177 48.0035 40.1611 48.002C40.699 47.9846 41.2034 48.1547 41.7224 48.2532C42.1972 48.3432 42.6753 48.4191 43.1434 48.5395C44.1073 48.7867 45.0829 48.9825 46.0335 49.2931C46.4009 49.4131 46.7832 49.5389 47.1724 49.6136C47.2761 49.6335 47.3633 49.7371 47.5706 49.8798H46.9288C46.9266 49.907 46.9244 49.9344 46.9219 49.9621C47.1449 50.0447 47.3675 50.1275 47.6204 50.2216C47.5684 50.3133 47.5192 50.4005 47.4753 50.478C47.5211 50.5464 47.5675 50.615 47.6348 50.7152C47.3979 50.8846 47.1839 51.0377 46.9678 51.1921C46.9361 51.1137 46.9053 51.0372 46.8592 50.9228C46.7663 50.9647 46.6769 51.0047 46.5854 51.0458C46.5095 51.0162 46.4163 50.9797 46.3232 50.9434C46.2291 50.9071 46.1345 50.8708 46.0806 50.8503C45.921 50.8924 45.7843 50.9287 45.6672 50.9598C45.5596 50.852 45.4807 50.7735 45.4022 50.6949C45.0072 50.9971 44.6491 50.6319 44.2705 50.6282C44.1935 50.6272 44.1176 50.5476 44.0406 50.5466C43.5701 50.5402 43.1309 50.3964 42.6797 50.2871C42.2668 50.1866 41.8288 50.1925 41.4031 50.1391C41.1529 50.1077 40.9051 50.055 40.6574 50.007C40.4088 49.9589 40.1253 50.1258 39.9057 49.8829C39.8851 49.8602 39.8217 49.8768 39.7778 49.8739C39.0842 49.8295 38.3899 49.7925 37.6974 49.7369C37.4246 49.7148 37.157 49.633 36.8842 49.6119C36.5967 49.5894 36.3053 49.5947 36.0169 49.6102C35.7444 49.6249 35.4733 49.6683 35.0905 49.7119Z" fill="black"/>
<path fill-rule="evenodd" clip-rule="evenodd" d="M13.2894 48.5906C13.0392 48.4394 12.8613 48.3316 12.6885 48.2272C12.8948 47.6672 12.8948 47.6672 12.2243 47.3412C12.1457 47.4202 12.067 47.4986 11.9449 47.6209C11.8903 47.5366 11.8356 47.452 11.7575 47.3314C11.9672 47.1332 11.9614 46.8805 11.7217 46.6455C11.9175 46.472 12.0822 46.3262 12.2956 46.1367C12.364 46.1335 12.5138 46.1259 12.6704 46.1183C12.6865 46.0428 12.6995 45.9818 12.713 45.9186C12.7463 45.9014 12.7831 45.8662 12.8196 45.8666C13.0144 45.8693 13.1956 45.7667 13.3669 45.748C14.1538 45.663 14.913 45.365 15.7247 45.453C15.9215 45.4743 16.196 45.2721 16.3212 45.3517C16.5364 45.4882 16.6587 45.3005 16.8263 45.3221C17.0452 45.3503 17.2721 45.3463 17.4919 45.3221C17.6079 45.3093 17.7157 45.2248 17.8181 45.1768C17.886 45.239 17.9338 45.2831 17.9426 45.291C18.3904 45.1415 18.7987 45.1437 19.2937 45.3133C19.3109 45.3025 19.3986 45.2018 19.4849 45.203C20.1208 45.2123 20.7558 45.2557 21.3916 45.2606C21.7869 45.2638 22.1822 45.2106 22.578 45.2005C22.6941 45.1976 22.8118 45.2559 22.9598 45.2939C22.9701 45.2846 23.0169 45.2422 23.0615 45.202C23.112 45.2466 23.1605 45.2897 23.2159 45.339C23.619 45.1094 24.042 45.2071 24.4623 45.2143C24.4623 45.3081 24.4623 45.3525 24.4623 45.3971C24.3516 45.4539 24.241 45.5108 24.1168 45.5743C24.0888 45.5498 24.0425 45.5088 23.9925 45.4645C23.5127 45.7176 22.976 45.5358 22.4677 45.6936C22.6032 45.7059 22.7554 45.7625 22.8703 45.7194C23.035 45.6578 23.1304 45.9358 23.3171 45.763C23.3855 45.7 23.5823 45.7762 23.8068 45.797C23.7999 45.8007 23.8852 45.751 23.9616 45.7061C24.0357 45.7738 24.0834 45.8176 24.1312 45.861C24.2739 45.6495 24.4859 45.7495 24.6702 45.7368C24.7363 45.8032 24.7993 45.8662 24.888 45.9546C24.7329 45.985 24.5976 46.0117 24.4623 46.0379C24.4636 46.0622 24.4645 46.086 24.4658 46.11C24.6327 46.1223 24.7998 46.1343 25.0341 46.1512C24.9652 46.3737 24.9062 46.5641 24.8319 46.804C24.2464 46.7457 23.6526 46.6862 23.1465 46.6357C22.9522 46.8212 22.8265 46.9415 22.7125 47.0501C22.4042 46.9736 22.288 46.7271 22.1434 46.5107C22.0452 46.6107 21.9675 46.6898 21.9079 46.7509C21.6967 46.7139 21.5016 46.6796 21.3443 46.6521C21.2379 46.8224 21.1604 46.9464 21.0879 47.0626H20.6473C20.5828 47.1388 20.5117 47.2231 20.435 47.3138H19.8258C19.8052 47.2555 19.7782 47.178 19.7295 47.0391C19.4633 47.1175 19.1932 47.1971 18.9418 47.2714C18.758 47.2479 18.5776 47.2153 18.3958 47.2033C18.2186 47.1915 17.9965 47.1344 17.8723 47.2163C17.6853 47.3393 17.5071 47.3231 17.317 47.3349C17.1224 47.3466 16.8952 47.3057 16.7432 47.3934C16.6009 47.4758 16.4813 47.2957 16.3303 47.4503C16.2364 47.5459 15.9651 47.468 15.7693 47.563C15.9044 47.5893 16.0396 47.6157 16.2048 47.6481C15.8617 47.9069 15.6012 47.6072 15.3157 47.5849C14.9902 47.5596 14.7611 47.815 14.4464 47.8022C14.5292 47.8427 14.6121 47.8829 14.6881 47.9199C14.6633 47.9473 14.6356 48.0007 14.614 47.9983C14.5106 47.9868 14.4092 47.9576 14.3062 47.9395C14.1766 47.9164 14.0457 47.8983 13.905 47.9446C13.9913 47.986 14.0773 48.0272 14.2479 48.1091H13.5972C13.4911 48.2752 13.4024 48.4137 13.2894 48.5906Z" fill="black"/>
<path fill-rule="evenodd" clip-rule="evenodd" d="M13.7396 12.4777C13.8624 12.5559 14.0221 12.6578 14.214 12.7803C14.0971 12.82 14.0197 12.8465 13.9339 12.8757C13.9418 12.9058 13.9408 12.9561 13.9589 12.9642C14.1084 13.0325 14.2616 13.0926 14.4138 13.1553C14.2434 13.3889 14.5743 13.6043 14.4062 13.805C14.2991 13.9415 14.192 14.0778 14.078 14.2229C13.4644 13.9378 12.8328 13.9944 12.2449 14.078C11.792 14.1427 11.344 14.1447 10.8955 14.1895C10.6688 14.2126 10.4617 14.3787 10.2164 14.3143C10.1215 14.2895 10.0321 14.2439 9.94019 14.2081C9.79462 14.599 9.47308 14.6049 9.07753 14.566C9.02435 14.4147 8.9697 14.2601 8.92975 14.1469C8.7658 13.9952 8.62169 13.8616 8.44304 13.6967C8.41877 13.7435 8.36167 13.8538 8.35089 13.8746C7.77447 13.9891 7.2782 13.781 6.80447 14.0653C6.74835 14.0241 6.6812 13.9751 6.60866 13.9224C6.4001 13.9731 6.17684 14.0275 5.95701 14.0814C5.89868 13.9601 5.85751 13.8736 5.80335 13.7606C5.76462 13.8672 5.73669 13.9442 5.68963 14.0731C5.51955 14.0239 5.34579 13.9736 5.14973 13.9168C5.11199 13.994 5.06886 14.0824 5.00882 14.2052C4.91887 14.1604 4.82942 14.1162 4.73531 14.0694C4.46353 14.3025 4.11969 14.1238 3.85869 14.1824C3.72733 14.1162 3.63836 14.0709 3.53421 14.0182C3.49328 14.1327 3.46559 14.2099 3.44476 14.2675C2.92765 14.3312 2.41961 14.3937 1.92089 14.4552C1.8856 14.5517 1.85766 14.6289 1.81845 14.7365C1.76404 14.6248 1.72287 14.5397 1.67777 14.4468C1.38589 14.4393 1.32658 14.7556 1.07808 14.8664C0.918046 14.7752 0.738407 14.6728 0.554112 14.5679C0.542838 14.4476 0.53279 14.3422 0.521762 14.2273C0.336486 14.1341 0.00539162 14.2407 0 13.8761C0.136016 13.7842 0.271787 13.6923 0.440398 13.5783C0.327909 13.5411 0.252671 13.5158 0.172287 13.4893C0.185276 13.2095 0.401431 13.1014 0.644544 12.9793C0.823938 12.9793 1.10847 13.0637 1.25233 12.957C1.4153 12.8365 1.56014 12.9847 1.7165 12.8624C1.86183 12.749 2.13533 12.9254 2.33016 12.7372C2.38922 12.6799 2.57572 12.6708 2.64214 12.721C2.82521 12.8598 2.97544 12.7196 3.1389 12.7139C3.36119 12.7063 3.58371 12.712 3.80624 12.712C4.00647 12.712 4.25424 12.7867 4.39638 12.6958C4.65763 12.5289 4.91936 12.6811 5.1811 12.5968C5.44309 12.5127 5.75801 12.61 6.04131 12.5693C6.32168 12.5291 6.57214 12.6875 6.87187 12.5968C7.15738 12.5108 7.49043 12.5956 7.80021 12.5735C8.09503 12.5522 8.38789 12.4961 8.67929 12.4426C8.97117 12.3895 9.28731 12.5701 9.56743 12.3208C9.64194 12.2549 9.8255 12.311 9.95906 12.311C10.8489 12.311 11.739 12.2961 12.6284 12.3184C12.9872 12.3275 13.3443 12.4184 13.7396 12.4777Z" fill="black"/>
<path fill-rule="evenodd" clip-rule="evenodd" d="M33.908 55.8026C33.6923 55.9342 33.5676 56.0102 33.4446 56.0849C33.609 56.1555 33.7872 56.2322 33.9935 56.3209C33.9448 56.4415 33.9141 56.5177 33.8663 56.6356C34.2168 56.9743 33.695 57.1591 33.6499 57.4985C33.3166 57.3277 32.9948 57.1628 32.6603 56.9912C32.6461 57.0329 32.6209 57.1066 32.578 57.2329C31.5425 57.0062 30.4821 56.9106 29.4082 56.8657C29.5432 56.8393 29.6785 56.813 29.8133 56.7866C29.8123 56.7657 29.8111 56.7452 29.8099 56.7243H28.7779C28.7516 56.7969 28.7237 56.8738 28.6928 56.9591H28.423C27.9561 56.9591 27.4876 56.9361 27.0224 56.9657C26.5962 56.9927 26.1737 57.076 25.6573 57.1476C25.4118 57.2618 25.1314 57.5617 24.6378 57.472C24.5697 57.3897 24.4594 57.2566 24.3244 57.0934C24.3423 57.0576 24.3798 56.9843 24.4178 56.9098C24.2227 56.6187 24.0173 56.3121 23.832 56.0357C23.9359 55.7117 24.0276 55.4254 24.1433 55.0639C24.453 54.799 24.9216 54.7108 25.3726 54.6985C26.6394 54.664 27.9076 54.6799 29.1751 54.6927C29.4016 54.6946 29.6273 54.7772 29.8537 54.8196C30.0809 54.862 30.3343 54.7257 30.5424 54.9387C30.5865 54.9841 30.7115 54.9505 30.799 54.9539C31.5019 54.9806 32.8552 55.3622 33.6085 55.7421C33.6619 55.7688 33.7293 55.7676 33.908 55.8026Z" fill="black"/>
<path fill-rule="evenodd" clip-rule="evenodd" d="M44.272 12.3863C44.1711 12.4213 44.0936 12.448 43.9552 12.4961C44.1169 12.6166 44.2495 12.7156 44.4051 12.8316C44.3603 12.9019 44.3157 12.9715 44.264 13.0524C44.3392 13.0882 44.4252 13.1296 44.512 13.1712V13.3185C44.4277 13.358 44.3372 13.4004 44.2468 13.4428C44.2929 13.4947 44.3338 13.5413 44.3747 13.5879C44.2581 13.6482 44.1478 13.7055 43.9897 13.7874C43.0491 13.7276 42.0453 13.9131 41.0452 13.7151C41.1307 13.7562 41.2162 13.7974 41.3044 13.84C40.906 14.1209 40.5312 13.6513 40.1408 13.8094C40.131 13.8273 40.1114 13.8472 40.1156 13.8577C40.1229 13.8768 40.1467 13.8886 40.16 13.9062C40.1818 13.9359 40.2006 13.9677 40.2705 14.0758C39.9538 14.0243 39.7002 13.9832 39.4073 13.9354C39.4811 14.0207 39.5208 14.0665 39.561 14.1131C39.3414 14.3554 39.1493 14.0099 38.8804 14.0596C38.94 14.14 38.9706 14.1817 39.0245 14.2545C38.6822 14.3655 38.3518 14.5343 38.0082 14.5677C37.6156 14.6061 37.4384 15.0162 37.085 14.9978C37.013 15.2698 36.9492 15.5107 36.8814 15.7666H36.4069C36.3567 15.7166 36.2356 15.6492 36.24 15.5911C36.2714 15.1554 35.7918 14.9443 35.8111 14.4888C35.844 13.7111 36.1572 13.1083 36.8965 12.7156C37.4114 12.4421 37.9533 12.2517 38.5412 12.1613C38.8799 12.1093 39.2179 12.0753 39.5546 12.028C39.8928 11.9804 40.2227 11.8927 40.5704 11.9071C40.9038 11.9209 41.2383 11.9101 41.5723 11.9101C41.9284 11.9101 42.2892 11.8748 42.6399 11.9187C43.1175 11.978 43.5888 12.0919 44.0593 12.1976C44.1336 12.2142 44.1899 12.3105 44.272 12.3863Z" fill="black"/>
<path fill-rule="evenodd" clip-rule="evenodd" d="M29.2441 38.8947H28.789C28.7169 38.5888 28.6498 38.304 28.5772 37.996H28.268C28.0445 37.6249 28.4741 37.325 28.3265 37.0076C28.5655 36.6594 28.9162 36.59 29.2708 36.5015C29.9825 36.3243 30.7153 36.3158 31.4287 36.2067C32.3328 36.069 33.2275 36.0871 34.1174 36.1258C35.1913 36.1726 36.2689 36.3104 37.3041 36.6442C37.4006 36.6753 37.4788 36.7642 37.5933 36.8463C37.4898 36.8804 37.4146 36.9054 37.331 36.9331C37.3362 36.9628 37.3301 37.0096 37.3482 37.0223C37.5023 37.1333 37.6607 37.2385 37.8307 37.3541C37.7852 37.4098 37.7484 37.4549 37.7131 37.498C37.7609 37.5821 37.8102 37.6686 37.8646 37.7651C37.744 37.8215 37.6538 37.8636 37.5641 37.9058C37.6102 37.959 37.6501 38.0048 37.6928 38.0538C37.4011 38.181 37.1725 38.3158 36.8012 38.1389C36.436 37.9646 35.9616 37.9977 35.5334 37.9825C34.9104 37.9605 34.286 37.9835 33.6623 37.9737C33.4094 37.9698 33.1506 38.0379 32.9065 37.8553C32.8185 37.7894 32.6273 37.8612 32.4555 37.872C32.531 37.9597 32.5707 38.0055 32.6612 38.1107C32.3455 38.1107 32.0828 38.1291 31.824 38.1048C31.6061 38.0845 31.3927 38.0149 31.0807 37.9455C31.1924 38.0796 31.2302 38.1249 31.2851 38.1908C30.9697 38.331 30.6783 38.2117 30.2962 38.0492C30.3932 38.2099 30.4283 38.2675 30.5055 38.3957C30.2445 38.3406 30.0374 38.2972 29.7649 38.2398C29.856 38.3479 29.8943 38.3933 29.9673 38.48C29.7997 38.4962 29.6595 38.5099 29.4872 38.5266C29.4132 38.6388 29.3235 38.7746 29.2441 38.8947Z" fill="black"/>
<path fill-rule="evenodd" clip-rule="evenodd" d="M21.5658 37.687C21.4785 37.5998 21.4155 37.5368 21.3008 37.4221C21.2619 37.5488 21.2227 37.676 21.2156 37.6993C20.7896 37.6351 20.5061 37.5924 20.1218 37.5348C20.2277 37.6718 20.261 37.7152 20.3203 37.7924C20.2465 37.8157 20.1826 37.8363 20.1179 37.8569C20.0644 37.7485 20.0203 37.6596 19.9458 37.5086C19.8556 37.6319 19.7914 37.7199 19.7226 37.8142C19.2814 37.7701 18.8192 37.724 18.3864 37.6811C18.3416 37.7539 18.3207 37.7738 18.3247 37.7846C18.3318 37.8037 18.3558 37.8154 18.369 37.8331C18.3916 37.8627 18.4112 37.8948 18.48 37.997C18.0811 37.936 17.7416 37.8841 17.3142 37.8184C17.4235 37.9473 17.4625 37.9929 17.5015 38.039C17.2419 38.2642 17.0005 38.0086 16.6837 37.9527C16.7572 38.076 16.7912 38.1328 16.8349 38.2063C16.5192 38.3691 16.2335 37.9284 15.9149 38.1764C15.9997 38.2176 16.0832 38.2585 16.2089 38.3201C15.9587 38.3747 15.7433 38.4215 15.4289 38.4899C15.1238 38.3492 14.8802 38.0505 14.8042 37.5895C14.7044 37.5819 14.5993 37.574 14.4373 37.562C14.4596 37.4059 14.4817 37.2532 14.5118 37.0452C14.514 37.0481 14.464 36.9824 14.4229 36.9283C14.454 36.8626 14.4635 36.8177 14.4902 36.7893C14.8672 36.3913 15.2963 36.1536 15.871 36.0769C16.2317 36.0286 16.6069 36.0499 16.9505 35.9593C17.7318 35.7531 18.518 35.8637 19.301 35.8428C20.0792 35.822 20.8587 35.8186 21.6366 35.8443C22.2324 35.8644 22.7857 36.0519 23.2698 36.4237C23.2132 36.4854 23.1693 36.5332 23.1213 36.5857C23.123 36.8342 23.3205 36.8822 23.521 36.9565C23.4832 37.0047 23.4492 37.0484 23.3869 37.1278C23.484 37.1934 23.5893 37.2648 23.67 37.3194C23.5962 37.4557 23.5474 37.5451 23.48 37.6696C23.393 37.7137 23.2644 37.7794 23.1369 37.8444C22.6402 37.5608 22.101 37.7907 21.5658 37.687Z" fill="black"/>
<path fill-rule="evenodd" clip-rule="evenodd" d="M31.8532 1.15427C31.8241 1.35082 31.8057 1.47385 31.7866 1.60374C31.5386 1.41233 31.3246 1.78117 31.0273 1.50252C31.042 1.54884 31.018 1.47311 30.9867 1.37361H30.5421C30.4764 1.454 30.3973 1.5508 30.2845 1.68853C30.2313 1.53708 30.2041 1.45988 30.1644 1.34739C30.0544 1.35327 29.9336 1.35964 29.7755 1.36822C29.8569 1.45841 29.8988 1.50546 29.9728 1.58781C29.7782 1.60472 29.6116 1.61918 29.4537 1.63314C29.4371 1.66206 29.417 1.68191 29.4209 1.6927C29.4282 1.71157 29.4523 1.72333 29.4652 1.74122C29.4875 1.77088 29.5067 1.80274 29.5339 1.84391C28.9614 2.02918 28.4286 1.59197 27.8144 1.79612C27.8482 1.84464 27.8848 1.89709 27.9549 1.99781C27.7723 1.99781 27.5588 2.06227 27.462 1.9836C27.2932 1.84636 27.1076 1.8466 26.9672 1.89488C26.3891 2.09413 25.7561 2.01007 25.188 2.2723C25.0451 2.33847 24.8287 2.24534 24.6167 2.22206C24.4912 2.43184 24.3496 2.50732 23.9106 2.52987C24.0204 2.40243 24.1038 2.30538 24.2177 2.17304H23.8379C23.8121 2.03212 23.7898 1.90983 23.7656 1.77749C23.6443 1.75862 23.5217 1.73975 23.3975 1.72039C23.4551 1.47336 23.507 1.25058 23.5678 0.989581C23.8834 0.758967 24.303 0.645743 24.702 0.478357C24.9659 0.367829 25.2877 0.561927 25.4877 0.280093C25.9364 0.235489 26.3883 0.210492 26.8336 0.142851C28.368 -0.0909489 29.9125 0.0666335 31.4503 0.000463611C31.7064 -0.0105647 31.9554 0.194317 32.2079 0.0127173C32.4328 0.289651 32.7818 0.0587912 33.0558 0.228627C33.273 0.363173 33.5668 0.374691 33.8844 0.45532C33.7303 0.527617 33.6398 0.570015 33.5298 0.62148C33.6099 0.90111 33.9236 0.862878 34.069 1.03492C33.9908 1.06678 33.9146 1.0979 33.8386 1.12878C33.8859 1.21407 33.9327 1.29862 33.9807 1.38489C33.7406 1.54075 33.5104 1.59418 33.2546 1.63609C33.0075 1.67652 32.7916 1.41258 32.5581 1.60888C32.3495 1.47458 32.141 1.33979 31.8532 1.15427Z" fill="black"/>
<path fill-rule="evenodd" clip-rule="evenodd" d="M26.6299 8.01776C26.5309 8.17755 26.4873 8.24764 26.441 8.32239C26.5995 8.42949 26.7348 8.5209 26.8723 8.61378C26.8355 8.65814 26.8098 8.68951 26.7637 8.74563C26.7946 8.81376 26.8417 8.89366 26.8659 8.98017C26.8831 9.04119 26.8694 9.11079 26.8694 9.21544C26.6799 9.31739 26.4797 9.42498 26.3647 9.48698C26.0273 9.54335 25.8962 9.14437 25.62 9.34949C25.3849 9.09805 25.1654 9.35954 24.9384 9.36493C24.3157 9.38013 23.6917 9.38478 23.0697 9.36224C22.8452 9.35415 22.6239 9.25661 22.3882 9.19657C22.3495 9.30955 22.323 9.38723 22.2963 9.46468C22.1181 9.65584 21.9593 9.30955 21.7336 9.46223C21.5794 9.56614 21.3052 9.51884 21.0888 9.49703C20.8905 9.47718 20.6974 9.4012 20.4207 9.32842C20.5011 9.4713 20.5342 9.53036 20.6099 9.66466C20.1036 9.55045 19.6389 9.76538 19.1655 9.51982C18.9775 9.42228 18.6969 9.50365 18.4538 9.60118C18.6743 9.62422 18.8949 9.64726 19.1155 9.6703C19.1145 9.69162 19.1138 9.71318 19.113 9.7345H18.2028C18.1472 9.67373 18.0347 9.5507 17.9445 9.45218C17.9901 9.34067 18.0266 9.25122 18.0724 9.13824C17.9648 9.11618 17.9038 9.10368 17.8124 9.08481C17.7945 8.98041 17.7734 8.85812 17.7529 8.73852C17.6698 8.70912 17.5926 8.68191 17.5156 8.65495V8.32214C17.9555 8.30867 18.404 8.2947 18.8525 8.28073C18.8527 8.2496 18.8527 8.21872 18.8527 8.18784H17.7183C17.5487 7.93934 17.7855 7.78029 17.8374 7.78911C18.1163 7.83714 18.3239 7.63545 18.5834 7.6281C19.8115 7.59305 21.0388 7.54085 22.2664 7.50041C22.5999 7.48938 22.9347 7.48473 23.2675 7.50164C23.9616 7.53644 24.6593 7.55335 25.3467 7.64501C25.7692 7.70113 26.1756 7.88101 26.6299 8.01776Z" fill="black"/>
<path fill-rule="evenodd" clip-rule="evenodd" d="M8.5403 2.33176C8.25014 2.46729 8.02982 2.57046 7.80827 2.67388C7.7296 2.59497 7.65093 2.5163 7.54187 2.40724C7.51271 2.4913 7.48943 2.55796 7.45487 2.65746H6.85077C6.83288 2.58933 6.81719 2.52904 6.7895 2.42391C6.66304 2.46263 6.60863 2.58541 6.49492 2.66947H6.05526C6.0305 2.59963 6.00281 2.52218 5.95184 2.37881C5.91017 2.49032 5.88665 2.55233 5.85822 2.62854C5.52247 2.7724 5.15437 2.84519 4.76004 2.82828C4.57967 2.82093 4.39537 2.90474 4.20961 2.94812C4.16794 2.90989 4.12089 2.867 4.07629 2.82607C4.02507 2.87117 3.97654 2.91455 3.9089 2.97459C3.74764 2.89151 3.58271 2.80647 3.45625 2.74128C3.25357 2.77804 3.07271 2.81088 2.86587 2.84813C2.83646 2.75255 2.81293 2.67658 2.7845 2.58394C2.41003 2.55943 2.15221 2.30382 1.86621 2.09085C1.92307 2.034 1.97012 1.98694 2.06448 1.89234H2.65143C2.65461 1.86735 2.6578 1.84235 2.66074 1.81711C2.44287 1.75339 2.22475 1.68942 1.95689 1.611C2.06693 1.49336 2.12427 1.43258 2.20221 1.3495C2.75877 1.3495 3.33469 1.35833 3.91037 1.34583C4.20691 1.33921 4.51717 1.42499 4.79313 1.21937C4.93698 1.11203 5.09138 1.41543 5.22838 1.25809C5.384 1.07943 5.48914 1.44851 5.66632 1.26152C5.73911 1.18457 5.98173 1.28186 6.14618 1.27574C6.36356 1.26814 6.57996 1.21937 6.79685 1.21864C8.2445 1.21324 9.69313 1.24412 11.1396 1.20344C11.8329 1.18433 12.5228 1.03802 13.2224 1.08213C13.5151 0.876758 13.8359 0.970866 14.1655 0.944153C14.0466 1.34142 13.7055 1.1483 13.3589 1.31544C13.7547 1.33725 14.0081 1.35147 14.3735 1.37181C14.2079 1.46199 14.1201 1.51003 13.9949 1.5784C14.0665 1.673 14.1334 1.75167 14.1885 1.83794C14.2395 1.91783 14.2777 2.00557 14.3713 2.18619C14.1844 2.09061 14.1023 2.04845 13.9746 1.98278C13.9317 2.08693 13.8957 2.17442 13.8574 2.26706C13.7903 2.22834 13.7236 2.19011 13.6288 2.13521C13.5722 2.17418 13.5038 2.22148 13.4303 2.27221C13.393 2.23863 13.3464 2.19599 13.2996 2.15359C13.2219 2.23128 13.143 2.30995 13.0548 2.39818C12.9183 2.32784 12.7781 2.25554 12.6247 2.17663C12.5921 2.24427 12.5507 2.32931 12.51 2.41312C12.4617 2.41533 12.4181 2.41729 12.3549 2.41999C12.3301 2.34867 12.3037 2.2727 12.2696 2.17418H11.9402C11.9221 2.22638 11.8951 2.30407 11.8508 2.43298C11.6638 2.38935 11.4711 2.3445 11.2766 2.29892C11.2449 2.37808 11.2145 2.45479 11.166 2.5761C11.0651 2.42268 10.9793 2.2923 10.8962 2.16585C10.8139 2.29451 10.7261 2.43151 10.6563 2.54056C10.3056 2.61041 10.1808 2.42881 10.1115 2.11512C10.0066 2.26142 9.92791 2.37097 9.81616 2.52684H9.26793C9.25298 2.48199 9.22725 2.40553 9.19514 2.31068H8.93732C9.00325 2.38862 9.04148 2.43445 9.08094 2.48076C8.98242 2.62977 8.81993 2.57928 8.5403 2.33176Z" fill="black"/>
<path fill-rule="evenodd" clip-rule="evenodd" d="M40.9534 45.3082C40.8828 45.4542 40.8125 45.5998 40.7125 45.8076C40.6667 45.6716 40.6468 45.6131 40.6076 45.4974C40.4777 45.4209 40.1846 45.4971 40.1136 45.2579C40.0775 45.1366 40.1508 44.9827 40.1783 44.8224C40.0618 44.7695 39.8932 44.6928 39.6786 44.5953C39.7121 44.2541 39.7469 43.8968 39.7876 43.4821C39.7969 43.4927 39.7538 43.4439 39.6562 43.3336C39.8204 43.3638 39.9229 43.3829 40.0682 43.4094C40.0819 43.292 40.1006 43.1368 40.1275 42.9087C40.4483 42.7704 40.8007 42.5967 41.1688 42.4658C41.5448 42.3325 41.9803 42.346 42.3268 42.1975C42.7256 42.0262 43.1709 42.3207 43.514 41.9926C43.5581 42.0333 43.6059 42.0774 43.6534 42.1212C44.1298 41.8747 44.6379 42.0328 45.2483 41.9691C45.139 42.0921 45.0959 42.1406 45.0535 42.1884C45.0949 42.235 45.1361 42.2813 45.2282 42.3852C44.8158 42.359 44.4516 42.4923 44.1102 42.2514C43.7282 42.4438 43.3292 42.5582 42.889 42.5254C42.3731 42.4867 41.8979 42.6513 41.3502 42.8712C41.5298 43.0062 41.6516 43.0979 41.7872 43.1998C41.8153 43.1175 41.8418 43.0398 41.868 42.9623C41.907 42.9491 41.9452 42.9305 41.9854 42.9239C42.278 42.8744 42.5716 42.9876 42.876 42.8072C43.0934 42.6785 43.438 42.8878 43.6799 42.657C43.6914 42.6459 43.723 42.657 43.7453 42.6555C44.3727 42.6109 44.9996 42.5567 45.6277 42.5276C45.812 42.5192 46.0267 42.4411 46.1826 42.6428C46.2085 42.6763 46.3191 42.6763 46.3723 42.6518C46.9852 42.3737 47.6305 42.5901 48.2561 42.5229C48.3223 42.5156 48.3897 42.5219 48.4591 42.5219C48.5358 42.5999 48.6137 42.679 48.7137 42.7807H49.5006C49.6006 42.8697 49.6658 42.928 49.7469 43.0006C49.6513 43.0337 49.5739 43.0606 49.456 43.1015C49.5974 43.1932 49.7212 43.2738 49.9003 43.3905C49.6567 43.5667 49.4423 43.7216 49.2416 43.8669C48.8781 43.7547 48.5813 43.363 48.1804 43.7174C48.078 43.4741 47.9821 43.2202 47.6123 43.3557C47.604 43.4067 47.5944 43.4672 47.5844 43.5297C47.6782 43.5753 47.7643 43.6167 47.8608 43.663C47.8059 43.6895 47.7702 43.711 47.7314 43.7243C47.4915 43.8066 47.3038 43.4079 47.0156 43.6772C46.8364 43.8441 46.5387 43.7324 46.2833 43.8289C45.9583 43.9515 45.5525 43.8586 45.0283 43.8586C45.2709 43.7453 45.3599 43.7037 45.5351 43.6218H44.8084C44.8486 43.7275 44.8869 43.8287 44.9405 43.9706H44.1357C43.9649 44.0578 43.8757 44.1036 43.7262 44.1801C43.8049 44.0637 44.0666 43.8074 44.109 43.7843C43.8524 43.5897 43.6843 43.873 43.4409 43.8958C43.4892 43.9566 43.5238 44.0007 43.5956 44.0919C43.3005 44.1502 43.0265 44.212 42.7498 44.2576C42.5273 44.2938 42.3606 44.3945 42.2249 44.6176C42.1048 44.5825 41.9788 44.5458 41.831 44.5029C41.5254 44.7381 41.2215 44.9724 40.9176 45.2067C40.9294 45.2408 40.9414 45.2744 40.9534 45.3082Z" fill="black"/>
<path fill-rule="evenodd" clip-rule="evenodd" d="M12.0872 28.2907C12.1629 28.3282 12.2384 28.3659 12.3139 28.4037C12.3033 28.4309 12.293 28.4586 12.2825 28.486C12.0654 28.486 11.7958 28.4059 11.6433 28.5051C11.4299 28.6446 11.3042 28.4534 11.1404 28.4855C10.9334 28.5257 10.7309 28.4473 10.5072 28.5767C10.302 28.6953 10.0026 28.6875 9.81239 28.5112C9.6031 28.5507 9.41782 28.5784 9.23622 28.6215C9.07227 28.6605 8.91493 28.8982 8.74828 28.6269C8.61766 28.8463 8.47404 28.7325 8.33141 28.6428C8.17897 28.8438 7.96257 28.7301 7.77558 28.7492C7.59937 28.7673 7.41777 28.7367 7.24206 28.7571C6.99159 28.7862 6.73059 28.8066 6.49875 28.8955C6.17231 29.0205 5.83558 29.0227 5.49517 29.0671C5.86768 29.2016 6.27573 29.2242 6.61418 29.118C6.85484 29.0426 7.07639 29.0511 7.30602 29.0217C7.64398 28.9788 7.96306 28.8575 8.31965 28.872C8.63236 28.8847 8.98036 29.0185 9.27298 28.7708C9.41684 28.8926 9.51928 28.911 9.70407 28.774C9.82219 28.6862 10.0979 28.7387 10.2653 28.8129C10.4023 28.8735 10.5481 28.7063 10.6701 28.8786C10.7076 28.9313 10.8986 28.9235 10.9897 28.8808C11.4703 28.6551 11.9531 28.7348 12.443 28.8244C12.5207 28.8387 12.6146 28.7502 12.6964 28.7578C13.2397 28.8088 13.7919 28.6409 14.3318 28.8367C14.4188 28.8681 14.5465 28.7622 14.657 28.7573C14.9459 28.745 15.2369 28.7693 15.5251 28.7495C15.9392 28.7208 16.3306 28.7901 16.8016 28.9953C16.5 29.0114 16.2887 29.023 16.0772 29.0345L16.0556 29.0984C16.1127 29.1171 16.1686 29.1406 16.2269 29.1531C16.288 29.1658 16.351 29.168 16.4313 29.1769C16.3627 29.3153 16.3037 29.4344 16.2444 29.5535C16.1895 29.5045 16.1412 29.4612 16.0713 29.3989C15.989 29.443 15.9022 29.4896 15.7601 29.5658C15.7922 29.3729 15.8177 29.2207 15.8498 29.0298C15.8348 29.0149 15.7718 28.9519 15.7179 28.898C15.4238 28.957 15.1376 29.0149 14.8359 29.0754C14.8987 29.143 14.955 29.2036 15.008 29.2604C15.1136 29.2185 15.2153 29.1778 15.3096 29.1403C15.503 29.4643 15.1606 29.3889 15.081 29.5021C15.132 29.6077 15.1739 29.6942 15.2449 29.841C15.1288 29.8089 14.9996 29.7991 14.994 29.7675C14.9398 29.4629 14.7661 29.3717 14.482 29.4428C14.4519 29.5207 14.4222 29.5972 14.358 29.7621C14.2622 29.541 14.1946 29.3849 14.1107 29.1918C14.3075 29.1631 14.4303 29.1453 14.5529 29.1276C14.5541 29.1004 14.5553 29.073 14.5568 29.046C14.3592 29.0347 14.1615 29.0234 13.9184 29.01C13.9426 29.0832 13.9573 29.1281 13.9892 29.2247C13.9578 29.2972 13.9051 29.4183 13.8436 29.5604C13.5213 29.5202 13.1799 29.6344 12.794 29.4237C12.8565 29.5798 12.8974 29.6815 12.9457 29.8025H12.5977C12.531 29.6084 12.4572 29.3938 12.3793 29.1666H12.1813C12.232 29.2854 12.2749 29.3862 12.3197 29.4915C12.068 29.5548 11.8482 29.6102 11.575 29.6788C11.5034 29.6175 11.3943 29.5244 11.2841 29.4298C11.2017 29.6045 11.1228 29.7724 11.0348 29.9596C10.988 29.8638 10.9468 29.7795 10.9047 29.6935C10.7128 30.0613 10.4128 30.1444 10.0239 30.0589C10.0881 29.9498 10.1383 29.8643 10.2244 29.7177C9.9984 29.705 9.8342 29.6952 9.64451 29.6844V30.0733C9.10094 30.1412 8.57477 30.2067 8.04492 30.2728C8.02213 30.34 7.99541 30.4177 7.9562 30.5324C7.5734 30.2478 7.14721 30.3964 6.73917 30.3498C6.69897 30.267 6.65756 30.1824 6.60364 30.0721C6.56443 30.1787 6.536 30.2559 6.50733 30.3336C6.42081 30.2907 6.33455 30.2478 6.19608 30.179C6.16986 30.3326 6.14952 30.45 6.14168 30.4963C5.91915 30.7456 5.73436 30.9524 5.53487 31.1759C5.49517 31.0698 5.46625 30.9926 5.43341 30.9044C5.34323 31.037 5.25573 31.1659 5.16481 31.2999C4.96214 31.0186 4.80235 30.7488 5.11188 30.4645C5.02414 30.3723 4.96385 30.3089 4.89989 30.242C4.83298 30.2804 4.76657 30.3187 4.65947 30.3807C4.59281 30.3233 4.51414 30.2557 4.40802 30.1645C4.4416 29.7599 4.31637 29.3222 4.57418 28.9328C5.08639 28.5899 5.70005 28.6362 6.25882 28.4774C6.86219 28.3059 7.46899 28.3686 8.07604 28.3532C8.22872 28.3493 8.36302 28.3529 8.49904 28.2304C8.57281 28.1637 8.76274 28.1931 8.88675 28.2274C8.97056 28.2505 9.02399 28.409 9.12545 28.2498C9.42199 28.3507 9.70284 28.1718 10.0048 28.2086C10.356 28.2512 10.7162 28.2184 11.0723 28.2184H12.0744C12.0786 28.2426 12.083 28.2664 12.0872 28.2907Z" fill="black"/>
<path fill-rule="evenodd" clip-rule="evenodd" d="M23.9149 19.4637V19.1576C23.7809 19.137 23.6584 19.1184 23.4809 19.0912C23.5647 18.9488 23.6258 18.8451 23.6446 18.8133C24.0363 18.494 24.3911 19.1971 24.646 18.7662C24.9212 18.8045 25.1259 18.8564 25.3305 18.8574C27.0217 18.864 28.713 18.8454 30.404 18.8689C31.0745 18.8785 31.7441 18.9758 32.4592 19.037L32.6038 19.1816C32.5783 19.2083 32.5531 19.2586 32.5273 19.2588C31.9933 19.2635 31.4593 19.2613 30.925 19.263C30.8216 19.2635 30.7179 19.274 30.614 19.3203C30.8638 19.4269 31.124 19.388 31.3792 19.3944C31.646 19.401 31.9156 19.3733 32.1796 19.4024C32.4188 19.4292 32.6513 19.5122 32.9604 19.5887C32.8023 19.6451 32.7249 19.6728 32.5827 19.7235C32.7065 19.7754 32.7847 19.8085 32.8766 19.8472C32.8802 19.9271 32.8842 20.0132 32.8883 20.1068C32.7702 20.1813 32.6597 20.284 32.5298 20.3237C32.4077 20.3609 32.2644 20.3423 32.132 20.3293C31.8627 20.3031 31.5725 20.4202 31.3277 20.2178C31.0804 20.4462 30.7809 20.3043 30.5064 20.3266C30.2192 20.3496 29.9283 20.3315 29.5953 20.3315C29.5355 20.4126 29.457 20.5192 29.3703 20.6371C29.2002 20.5866 29.0632 20.5457 28.8453 20.4808C28.8314 20.4898 28.7422 20.5945 28.6593 20.5896C28.4062 20.5746 28.1525 20.6582 27.8952 20.5043C27.633 20.3477 27.3251 20.5332 27.0193 20.4869C26.5015 20.4082 25.963 20.4653 25.4452 20.4653C25.4065 20.5749 25.3793 20.6523 25.3469 20.744C25.2766 20.7249 25.2013 20.7263 25.1616 20.6896C25.0021 20.5413 24.8636 20.3487 24.5945 20.53C24.6891 20.5749 24.7761 20.6163 24.8857 20.6685C24.5414 20.8251 24.2527 20.6972 23.9444 20.5585C23.9358 20.4639 23.9265 20.3585 23.9171 20.2533C23.8385 20.1744 23.7598 20.0958 23.6706 20.0068C23.7066 19.9629 23.7431 19.9181 23.8007 19.8477C23.6655 19.7617 23.5302 19.6755 23.3633 19.5693C23.4329 19.4669 23.5027 19.364 23.5682 19.2676C23.6699 19.3252 23.7566 19.3743 23.9149 19.4637Z" fill="black"/>
<path fill-rule="evenodd" clip-rule="evenodd" d="M12.9436 21.3573C12.8669 21.3865 12.7899 21.4156 12.6753 21.4592C12.7551 21.546 12.8194 21.6154 12.8833 21.685C12.9507 21.6176 12.9821 21.5862 13.0289 21.5394C13.1022 21.6805 13.1728 21.8166 13.2382 21.9423C13.175 22.066 13.1188 22.1758 13.0559 22.2996C12.8792 22.3523 12.6806 22.4621 12.4829 22.4606C11.9636 22.4569 11.4781 22.5567 10.986 22.7226C10.7159 22.8138 10.3848 22.6942 10.1118 22.8716C9.58463 22.7856 9.08884 23.0449 8.56438 23.0106C8.43597 23.0022 8.27642 23.1216 8.17864 23.0775C7.99483 22.9941 7.89631 23.1922 7.72672 23.149C7.59365 23.115 7.41303 23.0792 7.30789 23.25C6.74814 23.2294 6.24256 23.4914 5.69384 23.5561C5.22869 23.6107 4.77996 23.8063 4.38196 23.9227C4.25403 24.1019 4.16016 24.2337 4.05748 24.3776C3.97048 24.3259 3.89745 24.3072 3.86853 24.2612C3.74869 24.0695 3.64257 23.87 3.52934 23.6698H3.20952C3.23207 23.5059 3.2529 23.3534 3.28182 23.1419C3.28599 23.1471 3.23403 23.0843 3.19629 23.0387C3.33255 22.5979 3.72712 22.5417 4.02488 22.4912C4.54468 22.4028 5.03998 22.2217 5.57767 22.1785C6.16266 22.131 6.74986 22.0026 7.33387 21.9067C7.67501 21.8509 8.01174 21.8011 8.35117 21.8114C8.5411 21.8173 8.67197 21.706 8.83176 21.6769C9.02561 21.6413 9.23098 21.6688 9.43121 21.6683C9.60864 21.6676 9.89538 21.7303 9.94243 21.6511C10.0684 21.4396 10.2586 21.7573 10.3483 21.5565C10.3613 21.5274 10.4696 21.5406 10.5338 21.5347C10.8514 21.5061 11.1624 21.5627 11.4884 21.4203C11.7653 21.2992 12.1209 21.4656 12.4334 21.2798C12.5608 21.2041 12.7708 21.2673 12.9434 21.2673C12.9436 21.2972 12.9436 21.3271 12.9436 21.3573Z" fill="black"/>
<path fill-rule="evenodd" clip-rule="evenodd" d="M43.9276 36.2242H43.4696V35.7848C43.387 35.7069 43.3291 35.6361 43.2559 35.588C43.2071 35.5559 43.1368 35.5569 43.0605 35.5395V34.7094C43.2804 34.1857 43.7519 33.8588 44.2523 33.5671C44.8959 33.1922 45.5821 32.8871 46.2901 32.6859C46.8082 32.5388 47.3435 32.4077 47.8927 32.3352C48.3448 32.2756 48.8048 32.3016 49.2403 32.2099C49.6246 32.1288 49.9903 32.0842 50.3836 32.1055V32.3678H49.6067C49.6057 32.3991 49.605 32.4305 49.604 32.4619H50.4863C50.4446 32.6469 50.4446 32.6469 50.3939 32.702C50.4863 32.7461 50.5774 32.7895 50.7162 32.8559C50.5784 33.0194 50.4561 33.1645 50.3927 33.2397C49.889 33.3944 49.4376 33.3755 49.0163 33.5375C48.7394 33.6443 48.4017 33.4502 48.1478 33.6992C47.1827 33.8193 46.336 34.2639 45.4789 34.6771C45.2552 34.7847 45.0537 34.9393 44.831 35.0493C44.4013 35.2611 44.1296 35.5763 44.0788 36.0667C44.0734 36.1184 43.9899 36.1617 43.9276 36.2242Z" fill="black"/>
<path fill-rule="evenodd" clip-rule="evenodd" d="M54.7896 55.2213C54.7999 55.3171 54.8043 55.3595 54.8136 55.4495C54.467 55.5494 54.0906 55.4401 53.7411 55.5945C53.9063 55.6038 54.0715 55.6168 54.2369 55.6212C54.4121 55.6257 54.5874 55.6222 54.7447 55.6222C54.8219 55.7038 54.88 55.7651 54.9498 55.8391C54.8584 55.8717 54.781 55.8997 54.6401 55.9501C54.7633 56.0023 54.8418 56.0354 54.9692 56.0896C54.9234 56.2371 54.8761 56.3896 54.8275 56.5454C54.2688 56.6143 53.7605 56.6768 53.224 56.7429C53.2184 56.7706 53.2059 56.8317 53.1826 56.9459C52.913 56.9069 52.6319 56.8488 52.3481 56.83C52.0376 56.8094 51.7249 56.8253 51.4061 56.8253C51.3144 56.9123 51.2193 57.0032 51.1247 57.0934C50.8926 57.1091 50.6838 56.9836 50.4246 57.0706C50.2471 57.1302 49.9998 56.9817 49.7413 57.0321C49.8229 57.0745 49.9048 57.1174 50.067 57.2022H49.1595C49.0225 57.3297 48.9144 57.4306 48.774 57.5613C48.6328 57.3895 48.5233 57.2556 48.4287 57.1407C48.3699 56.9755 48.3142 56.8199 48.2581 56.6633C48.2973 56.5998 48.337 56.5354 48.3956 56.4405H47.9317C47.7618 56.204 47.8765 56.0538 48.0368 55.9107C48.1973 55.8925 48.3615 55.8744 48.5257 55.8563L48.5247 55.7801C48.3581 55.7668 48.1914 55.7533 48.002 55.7379C48.002 55.6644 47.9763 55.5811 48.0062 55.5475C48.2167 55.3115 48.4794 55.2152 48.8036 55.2166C50.7848 55.2259 52.766 55.2213 54.7896 55.2213Z" fill="black"/>
<path fill-rule="evenodd" clip-rule="evenodd" d="M24.4375 30.1886C24.4745 29.9234 24.5037 29.7163 24.5466 29.4105C24.5733 29.3904 24.6921 29.3002 24.884 29.1546C25.8557 28.8956 26.9566 29.062 28.0477 29.023C28.2803 29.0149 28.4994 29.0409 28.7339 29.1343C28.9643 29.2259 29.2657 29.1201 29.5247 29.1647C29.7414 29.2024 29.9365 29.349 30.1509 29.4171C30.369 29.4862 30.6153 29.482 30.819 29.5761C31.0395 29.6781 31.2251 29.8563 31.4319 30.0053C31.3677 30.0695 31.3363 30.1008 31.3192 30.118C31.44 30.3591 31.5574 30.5927 31.677 30.8314C31.5711 30.9343 31.4603 31.0424 31.3145 31.1848C30.7871 31.0311 30.1977 30.9831 29.685 30.6331C29.4561 30.7172 29.2157 30.8944 28.939 30.6429C28.8858 30.5949 28.6998 30.6665 28.589 30.715C28.4062 30.7956 28.254 30.8 28.1335 30.6008C27.8315 30.7363 27.5666 30.7905 27.2196 30.676C26.8618 30.5581 26.4349 30.6501 26.0261 30.6501C25.7915 30.8204 25.5367 31.0059 25.2661 31.2027C25.0541 31.0069 24.8132 30.8927 24.8522 30.5569C24.8639 30.4582 24.7483 30.3351 24.6706 30.24C24.6402 30.203 24.5539 30.2119 24.4375 30.1886Z" fill="black"/>
<path fill-rule="evenodd" clip-rule="evenodd" d="M44.6376 25.4699C44.5846 25.5469 44.5376 25.615 44.4579 25.7309C44.5834 25.7826 44.6704 25.8184 44.7699 25.8594V26.4495C44.6278 26.5377 44.4854 26.6264 44.3359 26.7196C43.9996 26.6098 43.6558 26.498 43.2578 26.3684C43.1365 26.4091 42.9671 26.622 42.7461 26.3931C42.699 26.3444 42.5853 26.3519 42.5017 26.3483C41.0997 26.2895 39.6976 26.2328 38.2475 26.1738C38.0191 25.8167 37.922 25.3197 37.3633 24.9411C37.7753 24.8962 37.9961 24.8724 38.2169 24.8484C38.2188 24.8266 38.2208 24.8048 38.223 24.7827C38.0505 24.7577 37.8777 24.7325 37.6527 24.6997C37.7346 24.5622 37.7961 24.4585 37.8745 24.3269C38.099 24.4029 38.3485 24.2316 38.5543 24.4548C38.5867 24.4901 38.6786 24.4727 38.743 24.4752C39.282 24.495 39.8184 24.5235 40.3571 24.5761C40.9345 24.6323 41.5271 24.6695 42.0944 24.7644C42.962 24.9092 43.8577 25.0175 44.6376 25.4699Z" fill="black"/>
<path fill-rule="evenodd" clip-rule="evenodd" d="M21.9934 24.7213C21.914 24.8255 21.8341 24.9304 21.774 25.0088H20.807C20.3215 24.7137 20.3793 24.1148 19.9463 23.6812H20.559C20.5636 23.6503 20.5683 23.6195 20.5727 23.5883C20.4676 23.5675 20.3624 23.5467 20.2085 23.5163C20.2009 23.4229 20.1914 23.3028 20.1781 23.1389C20.9383 23.1389 21.678 23.0587 22.3889 23.1668C22.8651 23.2394 23.3366 23.2134 23.8025 23.2813C24.2951 23.3531 24.7782 23.4925 25.2646 23.6062C25.682 23.704 26.0967 23.8111 26.5135 24.0155C26.4515 24.1219 26.4101 24.1929 26.3672 24.2665C26.4824 24.3454 26.612 24.4343 26.7439 24.5245C26.6897 24.5851 26.6478 24.6324 26.6125 24.6716C26.6628 24.7402 26.7113 24.8073 26.7873 24.9113C26.6309 25.0289 26.492 25.1333 26.277 25.2953C26.1221 25.247 25.8665 25.1671 25.6109 25.0875C25.0475 24.9184 24.4047 25.1982 23.8961 24.7843C23.7689 24.8171 23.6496 24.8816 23.5396 24.8686C23.3744 24.8488 23.2188 24.6003 23.0526 24.8693C22.9068 24.6377 22.7757 24.8409 22.6252 24.8591C22.4316 24.8821 22.2225 24.7774 21.9934 24.7213Z" fill="black"/>
<path fill-rule="evenodd" clip-rule="evenodd" d="M8.42962 39.9314C8.34091 39.9628 8.26346 39.9903 8.13725 40.0351C8.63353 40.1564 8.55976 40.5897 8.71195 40.8904C8.58378 41.0857 8.47031 41.2588 8.33846 41.459C8.10441 41.4252 7.93409 41.2779 7.8167 41.0595C7.76842 41.1022 7.71989 41.1455 7.69048 41.172C7.44908 41.1144 7.22582 41.061 6.9506 40.9955C6.90306 40.9144 6.82856 40.787 6.73004 40.6189C6.4335 40.7171 6.11931 40.8147 5.80979 40.9259C5.51986 41.0299 5.23533 41.1482 4.94811 41.2605V41.3928C5.03829 41.4362 5.12848 41.4796 5.23435 41.5303C5.20494 41.5982 5.17039 41.706 5.1574 41.7033C4.91306 41.655 4.99345 41.9158 4.879 41.9879C4.84861 41.956 4.81797 41.9241 4.77116 41.8751C4.69372 41.9146 4.61187 41.9567 4.48394 42.0222C4.44105 41.9183 4.40502 41.831 4.36165 41.7256C4.31337 41.7641 4.26925 41.7991 4.17416 41.8746C4.09378 41.6808 4.04942 41.4764 3.93546 41.3249C3.81538 41.1654 3.65779 41.0431 3.75803 40.8201C3.58599 40.7894 3.46345 40.7676 3.33724 40.7453C3.49212 40.2976 3.49212 40.2976 3.31641 39.9055C3.57398 39.7552 3.82984 39.4969 4.10481 39.4746C4.42782 39.4484 4.74028 39.1717 5.1253 39.3842C5.05545 39.4952 5.00031 39.5825 4.93365 39.6883H4.3565C4.26509 39.8033 4.18789 39.9006 4.11461 39.9927C4.17024 40.0513 4.19598 40.0785 4.22171 40.1054C4.25308 40.0741 4.28224 40.0182 4.31655 40.0148C4.92483 39.9555 5.53359 39.8981 6.14309 39.8545C6.21244 39.8493 6.28744 39.9275 6.34625 39.9599C6.45458 39.904 6.56535 39.8471 6.6798 39.7883C6.26489 39.5077 5.82915 39.5119 5.36351 39.6856C5.36351 39.5749 5.36351 39.47 5.36351 39.3651C5.37895 39.3494 5.39463 39.32 5.41056 39.3197C5.94433 39.3158 6.5129 39.1999 7.00256 39.3464C7.4758 39.4883 8.05638 39.4687 8.42962 39.9314Z" fill="black"/>
<path fill-rule="evenodd" clip-rule="evenodd" d="M11.6043 59.533C11.5124 59.4793 11.3318 59.4372 11.2779 59.3308C11.1031 58.9843 10.9576 58.6196 10.8382 58.2503C10.7988 58.129 10.8735 57.9707 10.9046 57.7756C10.9154 57.7878 10.8742 57.7415 10.8174 57.6773C10.9757 57.5749 11.133 57.4732 11.2882 57.3727H15.9916C16.0583 57.4445 16.1149 57.5048 16.1985 57.5945C16.0436 57.6178 15.921 57.6361 15.7363 57.6638C15.9634 57.7577 16.1389 57.8305 16.4453 57.9569C16.1725 58.0118 16.0411 58.0383 15.9095 58.065C15.909 58.0854 15.9085 58.1057 15.9083 58.1258C16.0264 58.1444 16.1446 58.163 16.2637 58.1819C16.3808 58.3961 16.2965 58.5532 16.1193 58.6851C14.9628 58.6718 13.8154 58.9245 12.6537 58.8309C12.6096 58.8272 12.565 58.8304 12.5206 58.8304C12.2337 59.0505 11.9467 59.2705 11.6043 59.533Z" fill="black"/>
<path fill-rule="evenodd" clip-rule="evenodd" d="M50.1455 18.1321C50.4834 18.0821 50.7714 18.0125 51.0608 18.0044C51.3279 17.9966 51.5787 17.8944 51.8781 18.035C52.1291 18.1527 52.4788 18.0591 52.792 17.9946C52.5717 17.9128 52.3514 17.8309 52.0989 17.737C52.3668 17.5981 52.5604 17.6831 52.7854 17.778C52.9633 17.853 53.2241 17.7287 53.3248 18.0321C53.1986 18.0502 53.0761 18.0679 52.9234 18.0897C52.9827 18.1593 53.0121 18.2174 53.0591 18.2448C53.202 18.3279 53.3518 18.399 53.5 18.4754C53.5593 18.4269 53.6088 18.3865 53.6608 18.3441C53.8098 18.3924 53.8576 18.5394 53.8524 18.9475C53.2929 19.0011 53.0253 18.9342 52.4097 18.5789C52.3337 18.6235 52.2453 18.6757 52.1448 18.7347C52.0607 18.6887 51.9705 18.6394 51.8531 18.5752C51.7941 18.6195 51.7279 18.6695 51.6608 18.72C51.4865 18.6816 51.3052 18.6414 51.124 18.6014C51.0032 18.8678 50.7564 18.399 50.5932 18.7012C50.5329 18.8129 50.2518 18.8058 50.0629 18.8551C50.0234 18.8185 49.9754 18.7735 49.9171 18.7193C49.894 18.7806 49.8722 18.8382 49.8266 18.958C49.6725 19.0156 49.4688 19.0918 49.1973 19.193V18.6161C49.0458 18.5997 48.9404 18.5882 48.8105 18.5742C48.9213 18.5026 49.0203 18.4387 49.0897 18.3936C48.9956 18.1988 48.9542 18.1127 48.8877 17.975C49.3061 17.8787 49.698 17.7885 50.1014 17.6954C50.1445 17.741 50.2016 17.802 50.2859 17.8919C50.1325 17.9152 50.0099 17.9338 49.8055 17.9652C49.969 18.0453 50.0658 18.0931 50.1455 18.1321Z" fill="black"/>
<path fill-rule="evenodd" clip-rule="evenodd" d="M60.3081 36.5984C60.1981 36.6503 60.116 36.689 59.9312 36.7763C60.2309 36.7932 60.4321 36.8047 60.6713 36.8182C60.6174 36.6863 60.5762 36.5854 60.5284 36.4692C60.7657 36.4143 60.9782 36.365 61.2428 36.3038C61.2068 36.4114 61.1767 36.5008 61.1313 36.6351C61.1615 36.6469 61.2222 36.6702 61.3051 36.702C61.3475 36.7846 61.4036 36.8946 61.4595 37.0035C61.149 37.1397 60.8181 37.2846 60.5657 37.3951C60.0457 37.5274 59.6018 37.6404 59.1413 37.7573C59.1134 37.6735 59.0877 37.5968 59.0619 37.5203C58.8938 37.4443 58.7259 37.3684 58.5078 37.2694C58.7715 37.1718 58.9945 37.0892 59.3033 36.9748C59.0531 36.954 58.8872 36.94 58.721 36.926C58.7017 36.9027 58.6821 36.8795 58.6627 36.8564C58.7475 36.84 58.8323 36.8238 58.9168 36.8076C59.3215 36.764 59.7692 36.4033 60.3081 36.5984Z" fill="black"/>
</svg>
