<svg width="138" height="114" viewBox="0 0 138 114" fill="none" xmlns="http://www.w3.org/2000/svg">
<path fill-rule="evenodd" clip-rule="evenodd" d="M55.4105 89.4476C55.2747 89.3375 55.1383 89.2268 55.0025 89.1161C54.1655 90.4147 53.3285 91.7132 52.4915 93.0118C52.5925 93.0768 52.6935 93.1425 52.7945 93.2075L55.4105 89.4476ZM123.227 14.3173C123.349 14.4366 123.47 14.5552 123.592 14.6745C125.713 12.6074 127.833 10.5403 129.952 8.4732C129.816 8.33455 129.68 8.19591 129.544 8.05784C127.438 10.1443 125.333 12.2308 123.227 14.3173ZM83.9454 53.9949C86.1426 51.877 88.3398 49.7586 90.537 47.6413L90.1838 47.2875C89.3645 48.0652 88.5355 48.832 87.7299 49.6234C86.8838 50.4552 86.0228 51.278 85.2412 52.168C84.7505 52.726 84.3928 53.4015 83.9757 54.0246C82.628 55.4778 81.2798 56.9315 79.9316 58.3847C79.4866 58.6985 78.9651 58.9444 78.608 59.3381C75.9287 62.2895 73.2243 65.2216 70.6408 68.2557C68.0825 71.2614 65.6098 74.3429 63.1941 77.4644C62.0022 79.0037 61.0237 80.7085 59.9488 82.3386C60.0703 82.4202 60.1913 82.5017 60.3128 82.5833C62.2458 80.0005 64.0835 77.3389 66.1335 74.8524C69.9579 70.2156 73.9124 65.686 77.7955 61.0965C78.5389 60.2179 79.2025 59.2713 79.9025 58.3562C81.2502 56.9024 82.5978 55.4487 83.9454 53.9949ZM53.1918 71.2871C50.6756 74.0229 48.1464 76.7472 45.6457 79.4978C42.6806 82.7596 39.7325 86.0374 36.7965 89.3255C36.3886 89.7825 36.0143 90.3023 35.7547 90.854C34.7448 93.005 32.805 92.8053 30.9775 92.7203C29.9054 92.6706 29.2601 91.0046 29.9596 90.0279C31.8892 87.3337 33.7658 84.5814 35.919 82.0721C42.5995 74.2864 49.4005 66.6046 56.1483 58.8777C56.7274 58.2147 57.233 57.4861 57.8286 56.8402C58.4402 56.1761 58.9497 55.0008 60.0572 56.462C60.3561 56.8562 61.3226 56.6731 61.8789 56.9578C63.8165 57.9494 64.233 58.731 63.6185 60.7856C62.7998 63.5236 61.8019 66.2092 60.8633 68.9107C60.1781 70.8826 59.5077 72.8612 58.7535 74.8068C57.7995 77.267 56.6807 79.6656 55.8037 82.1514C55.2868 83.6178 55.1008 85.2004 54.7659 86.7307C54.8886 86.8596 55.0118 86.9891 55.1345 87.1181C55.2457 86.8111 55.2897 86.4522 55.4802 86.2058C57.9439 83.0227 60.4429 79.8658 62.9048 76.6805C65.1561 73.7678 67.2227 70.6983 69.6349 67.9277C74.8509 61.9369 80.0315 55.8926 85.5954 50.2333C96.2961 39.3484 107.274 28.7368 118.096 17.97C123.772 12.3215 129.361 6.58412 134.996 0.892907C135.267 0.618474 135.598 0.402236 136.098 0C136.064 0.661265 136.044 1.04924 136.024 1.43664C136.12 1.49255 136.252 1.60609 136.283 1.58327C136.995 1.05551 137.717 1.4355 137.884 1.98665C138.081 2.63194 138.037 3.59673 137.668 4.12278C136.463 5.84526 135.101 7.46447 133.726 9.0603C132.523 10.4581 131.264 11.8132 129.956 13.1123C126.628 16.4158 123.641 20.0456 120.158 23.2042C119.205 24.068 118.554 25.2661 117.76 26.3068C117.54 26.5944 117.325 26.8899 117.069 27.1432C111.496 32.6764 105.931 38.2176 100.334 43.7268C97.8 46.2206 95.1772 48.6238 92.6377 51.1125C90.8747 52.8401 89.2276 54.6876 87.4377 56.3844C86.9003 56.8939 86.6162 58.2369 85.3404 57.4513C85.3102 57.433 84.9918 57.7856 84.8868 58.0036C84.5411 58.7242 84.1839 59.4459 83.9175 60.1973C83.3977 61.6619 82.1362 62.3529 81.0174 63.2503C80.1119 63.9772 79.4746 65.0293 78.657 65.8783C77.8292 66.7387 76.4188 67.4011 76.1786 68.3761C75.8511 69.7061 74.7282 70.1077 74.1571 71.0731C73.0719 72.9091 71.8635 74.6801 70.6003 76.4003C68.9377 78.6637 67.476 81.222 65.3593 82.9588C63.582 84.4177 62.7422 86.3838 61.3226 87.9933C59.4484 90.1186 57.9039 92.5497 56.3486 94.9346C55.2109 96.6776 54.5999 98.885 53.1632 100.273C52.0261 101.371 51.8687 102.798 50.9872 103.805C49.1757 105.873 48.1767 108.373 46.995 110.75C46.0742 112.604 44.8195 113.404 42.9299 113.086C42.2099 112.965 41.119 113.963 40.6163 112.077C40.258 110.732 39.5329 110.912 40.0321 109.499C44.415 97.1038 48.806 84.7115 53.1923 72.3175C53.2916 72.0379 53.3646 71.7486 53.4497 71.4639C53.3641 71.4052 53.2779 71.3458 53.1918 71.2871Z" fill="black"/>
<path fill-rule="evenodd" clip-rule="evenodd" d="M114.986 1.75906C115.174 2.15331 115.234 2.56125 115.461 2.70731C116.812 3.57112 116.87 4.0869 115.552 5.14583C112.728 7.41376 109.826 9.58755 107.05 11.912C102.504 15.7192 97.9898 19.5664 93.5481 23.4941C90.9384 25.8019 88.3829 28.1925 86.0014 30.732C82.5097 34.4554 79.1669 38.3203 75.8172 42.1738C73.5453 44.7881 71.3595 47.4776 69.1577 50.1523C68.4035 51.0692 67.4438 50.6618 66.9851 50.1541C66.5732 49.6982 66.3957 48.5223 66.6998 48.0151C68.1074 45.6673 69.6547 43.3948 71.2682 41.1799C82.3762 25.9286 96.7363 14.1947 112.088 3.54203C113.014 2.89959 114.01 2.35586 114.986 1.75906Z" fill="black"/>
<path fill-rule="evenodd" clip-rule="evenodd" d="M13.9199 39.0694C14.8284 39.2826 15.6886 39.1493 16.5032 38.6804C15.6092 38.5722 14.7738 38.8881 13.9199 39.0694ZM21.1403 30.2574C21.202 33.2214 20.3098 35.4029 19.1018 37.4513C18.255 38.8872 16.8721 39.6056 15.2041 39.6907C13.7836 39.7632 12.3848 39.6526 11.03 39.1375C10.0086 38.7494 9.33152 37.9996 8.76648 37.1342C7.71603 35.5248 6.48243 33.975 6.44013 31.9287C6.38696 29.3736 6.91324 26.9702 8.60082 24.9527C9.31545 24.0987 10.1636 23.5254 11.3956 23.7175C12.6183 23.9082 13.1117 25.3973 13.1025 26.2894C13.0983 26.7022 12.7537 26.9102 12.5505 27.1524C11.6248 28.256 11.436 29.6373 10.9995 30.9253C10.9094 31.1904 11.0921 31.2635 11.2954 31.3077C12.614 31.5941 13.8115 31.5097 14.7083 30.3073C15.1838 29.6702 15.698 29.0662 16.0123 28.3234C16.1619 27.9703 16.169 27.6466 16.0376 27.2706C15.8824 26.8249 15.568 26.2766 16.3515 26.0327C16.5117 25.9829 16.4788 25.8465 16.4039 25.7161C16.0752 25.1456 16.265 24.5897 16.8841 24.2889C18.138 23.6794 20.0868 24.7932 20.2077 26.1849C20.2205 26.3312 20.2297 26.5011 20.3075 26.6146C21.1778 27.8822 21.0072 29.3606 21.1403 30.2574Z" fill="black"/>
<path fill-rule="evenodd" clip-rule="evenodd" d="M38.3696 30.5805C37.6535 30.4687 36.9564 30.5195 36.2978 30.8282C37.0093 30.9175 37.7183 30.9969 38.3696 30.5805ZM34.4202 16.3343C34.1206 16.5936 33.7042 16.4653 33.5272 16.8365C33.7609 17.0152 33.9757 16.7666 34.1794 16.8108C34.4635 16.8727 35.0463 16.7725 34.5854 17.3812C34.5514 17.4264 34.472 17.4715 34.5684 17.519C35.3665 17.9132 34.7691 18.4201 34.6436 18.849C34.5131 19.2973 34.3125 19.7267 34.3018 20.202C34.2872 20.8668 34.2806 21.5318 34.2896 22.1961C34.3004 23.0116 34.4271 23.1163 35.2355 23.0395C36.6301 22.9069 37.6087 21.9018 37.5749 20.5045C37.547 19.3588 37.7746 18.2625 38.0327 17.169C38.1657 16.6056 38.5192 16.154 39.1453 16.0465C39.8823 15.9196 40.9517 16.3731 41.2263 17.0275C41.6885 18.1287 42.1049 19.2669 42.2687 20.4499C42.5918 22.7854 42.5254 25.1151 41.8707 27.4046C41.615 28.2986 41.2662 29.1699 40.7262 29.9077C40.0161 30.8778 38.9496 31.3143 37.7599 31.4386C36.2569 31.5955 34.8088 31.5466 33.5522 30.5212C33.2769 30.2965 33.1032 30.0029 32.9158 29.7437C31.6817 28.0358 30.2033 26.4314 29.9108 24.2303C29.5738 21.6955 29.9642 19.2643 31.2701 17.0313C31.7231 16.2564 32.343 15.6745 33.3462 15.7877C33.7557 15.8341 34.1371 15.9555 34.4202 16.3343Z" fill="black"/>
<path fill-rule="evenodd" clip-rule="evenodd" d="M29.1698 50.9116C29.8441 51.254 30.9916 51.2169 31.5378 50.8601C30.7508 50.8163 29.9998 50.7594 29.1698 50.9116ZM36.5304 43.7482C36.5953 45.9252 35.9698 48.11 34.507 50.0303C33.8989 50.8284 33.0713 51.3282 32.1031 51.5444C30.4399 51.9157 28.8215 51.76 27.2729 51.0113C26.3721 50.576 25.7969 49.8344 25.2087 49.051C24.1157 47.595 23.5759 45.9124 23.1219 44.2116C22.6025 42.266 22.9695 40.3903 23.8664 38.5808C24.1745 37.9588 24.3856 37.3328 25.025 36.9603C25.5119 36.6768 25.9762 36.7996 26.4437 36.97C26.5557 37.0109 26.7301 37.1442 26.7209 37.2146C26.5904 38.2119 27.4402 39.0449 27.1819 40.0621C27.082 40.456 27.0274 40.8622 26.9645 41.2647C26.7899 42.3827 27.3984 43.2077 28.5467 43.3325C29.665 43.454 30.6462 43.1127 31.3358 42.1975C31.9041 41.4436 32.3118 40.5921 32.5297 39.6627C32.7105 38.8913 33.319 38.4763 34.1055 38.594C35.4121 38.7895 35.7368 39.1397 35.8772 40.5014C35.8857 40.586 35.8814 40.6916 35.9296 40.7488C36.618 41.5729 36.4072 42.581 36.5304 43.7482Z" fill="black"/>
<path fill-rule="evenodd" clip-rule="evenodd" d="M54.523 20.6008C54.9716 20.7112 55.4192 20.8912 55.8327 20.5573C55.3906 20.5129 54.9489 20.3999 54.523 20.6008ZM53.62 10.8861C54.5832 11.186 53.8197 11.7517 53.8232 12.1821C53.8249 12.3934 53.5805 12.6323 53.8114 12.8561C54.0364 13.074 54.3209 13.0577 54.596 12.9473C55.8239 12.455 56.488 11.4634 56.7472 10.2457C56.9374 9.35095 57.2508 8.49594 57.4413 7.60406C57.6121 6.80387 58.4284 6.38015 59.2335 6.56235C60.1954 6.78001 60.7968 7.30488 60.9301 8.31799C61.0884 9.52228 61.4285 10.6852 61.3923 11.9358C61.3087 14.8442 60.4853 17.4563 58.6798 19.747C56.9956 21.8835 53.7672 21.9764 52.0335 19.8647C51.4713 19.1796 50.9502 18.3936 50.8484 17.4391C50.8316 17.2817 50.7262 17.1259 50.6373 16.9846C49.1561 14.6346 49.309 12.2107 50.4067 9.8009C51.1582 8.15185 52.4502 8.23149 53.5006 9.01703C53.632 9.11533 53.8135 9.23255 53.7833 9.42043C53.7445 9.66171 53.5032 9.5419 53.3558 9.592C53.2156 9.63973 53.0216 9.64588 53.0457 9.84486C53.0705 10.0528 53.2678 9.99091 53.4096 10.0058C53.6675 10.0327 53.9383 10.0498 54.0375 10.3537C54.1444 10.6812 53.7726 10.6821 53.62 10.8861Z" fill="black"/>
<path fill-rule="evenodd" clip-rule="evenodd" d="M8.70508 54.3543C8.56423 54.5625 8.65309 54.7473 8.86294 54.7681C9.19261 54.8005 8.9882 54.5554 8.9993 54.4158C9.01514 54.2165 9.10825 54.343 9.20726 54.3614C9.42492 54.402 9.40719 54.1995 9.3181 54.1411C9.17016 54.0438 8.96551 53.9639 8.79701 53.9835C8.5985 54.0062 8.65238 54.2016 8.70508 54.3543ZM7.87823 56.9619C7.37486 56.8062 6.80084 57.4114 6.49315 56.6242C6.49173 56.9645 6.29204 57.4683 6.68764 57.4482C7.04898 57.4298 7.59251 57.461 7.87823 56.9619ZM10.9113 55.1283C11.2844 55.3504 11.3586 54.8908 11.7528 54.9102C11.219 55.3263 10.9129 55.7803 10.7052 56.3508C10.5679 56.7277 9.99577 56.9574 9.63089 57.1361C8.33798 57.7692 6.94486 58.1908 5.48558 58.2319C5.04389 58.2444 4.61757 57.9675 4.15367 57.9356C4.00999 57.9259 3.87481 57.8089 3.88497 57.6283C3.88734 57.5832 3.96698 57.5007 3.99983 57.5059C4.26663 57.5487 4.4538 57.5265 4.32217 57.1826C4.26332 57.029 4.28483 56.8163 4.08017 56.7589C3.72073 56.658 4.0029 57.1682 3.72616 57.1446C3.46196 57.3686 3.80699 56.2671 3.32796 56.9718C3.29771 56.948 3.25258 56.9298 3.23958 56.8986C2.95505 56.2125 2.28768 55.8306 1.91665 55.1881C1.56311 54.576 1.10914 54.0223 0.842333 53.3497C0.040022 51.3299 -0.214024 49.2507 0.187959 47.1134C0.396867 46.0018 1.10252 45.549 2.1206 45.7468C2.46917 45.8144 2.73881 45.9888 2.87753 46.2861C3.40193 47.4105 4.19314 48.4574 3.78217 49.8456C3.65503 50.275 3.89892 50.7339 4.20448 51.0848C4.3933 51.3015 4.62395 51.4306 4.94298 51.2677C5.55317 50.9563 6.15957 50.658 6.59109 50.0885C6.89925 49.6818 7.2665 49.3197 7.59475 48.9274C8.04801 48.3856 8.17185 47.6976 8.22242 47.0463C8.2997 46.0533 8.93918 45.5878 9.86627 46.0063C10.2432 46.1764 10.6102 46.4305 10.769 46.8022C11.1894 47.7848 11.6673 48.7294 11.8941 49.812C12.1158 50.8695 12.1789 51.8966 12.125 52.9534C12.1016 53.4133 11.8065 53.8136 11.8474 54.295C11.8549 54.3841 11.6486 54.5682 11.5314 54.5769C11.1519 54.6053 11.1285 54.943 10.9113 55.1283Z" fill="black"/>
<path fill-rule="evenodd" clip-rule="evenodd" d="M48.6919 35.7302C48.3015 36.1326 48.1862 36.1714 48.0548 35.9152C47.8768 35.5683 47.3687 35.4501 47.1064 35.7016C46.9455 35.8557 46.9483 36.0565 47.0878 36.2002C47.3045 36.4238 48.5728 36.0622 48.6919 35.7302ZM49.7053 40.549C49.46 40.3176 49.0559 40.48 48.9299 40.3214C48.4911 39.7687 48.1961 40.449 47.8261 40.4062C47.7611 40.3987 47.5125 40.6388 47.5838 40.8059C47.6566 40.9758 47.9728 41.1074 48.0647 41.0287C48.5372 40.6237 49.179 40.8633 49.7053 40.549ZM48.3339 37.9388C48.073 37.9353 47.7691 37.9435 47.727 38.2999C47.6774 38.7194 48.0638 38.5301 48.2549 38.6213C48.4922 38.735 48.703 38.5107 48.8996 38.579C49.1142 38.6532 49.2444 38.5906 49.3222 38.4325C49.4351 38.2028 49.2236 38.0371 49.1291 37.8648C49.0289 37.6831 48.862 37.819 48.7413 37.883C48.6175 37.949 48.5258 38.1099 48.3339 37.9388ZM53.5479 31.284C53.8832 31.4263 54.1658 31.6012 54.2176 31.941C54.2578 32.205 53.9498 32.0696 53.8012 32.2418C54.5116 32.2584 54.3707 32.8827 54.2956 33.142C54.0971 33.825 54.3487 34.4779 54.2689 35.1453C54.2162 35.5839 54.1153 36.028 54.0789 36.4715C54.0413 36.9316 53.7331 36.2976 53.494 36.3309C53.3685 36.4677 53.3777 36.6114 53.5384 36.693C53.7034 36.7769 53.9962 36.7598 53.973 36.9924C53.9449 37.2748 53.8631 37.708 53.679 37.7883C53.183 38.0048 53.2978 38.4968 53.3283 38.7246C53.394 39.2162 53.1697 39.1559 52.9086 39.0822C52.531 38.9751 52.3043 39.0956 52.2285 39.4619C52.1318 39.9294 51.6065 39.8523 51.3718 40.1815C51.1416 40.5041 50.7812 40.7322 50.8127 41.2147C50.164 41.137 50.4639 40.5656 50.2065 40.2186C50.1148 41.3518 49.2775 41.3322 48.5192 41.4166C48.2672 41.4449 47.9818 41.348 47.7606 41.434C47.2964 41.6141 47.3302 41.3896 47.4477 40.9664C47.1889 41.4707 46.95 41.6425 46.5858 41.2232C46.4537 41.0713 46.2351 41.0944 46.048 41.0526C45.7034 40.9753 45.6613 40.895 45.6705 40.4514C45.6731 40.3264 45.594 40.3392 45.5172 40.304C44.7267 39.9419 44.3833 39.28 44.3774 38.4129C44.3746 38.0001 44.5433 37.3419 43.7285 37.3849C43.6162 37.3906 43.5938 37.3053 43.5576 37.2285C42.8094 35.6364 43.0531 34.1055 43.8946 32.6408C44.2831 31.9649 45.2773 31.6286 46.0331 31.8942C46.2803 31.9812 46.5456 32.2166 46.6506 32.4519C46.755 32.6857 46.4922 32.779 46.2526 32.8097C46.0661 32.8336 46.1238 32.9936 46.1635 33.1162C46.2302 33.3216 46.3689 33.3748 46.565 33.3022C47.0424 33.1252 47.1499 33.2044 47.0939 33.7701C47.053 34.1846 47.6436 34.3496 47.9742 34.5741C48.1982 34.7263 48.3176 34.4002 48.3835 34.2128C48.4315 34.0776 48.5055 33.9764 48.6137 33.9214C49.6594 33.3856 49.7745 32.36 49.9366 31.376C50.0127 30.9144 50.0243 30.417 50.1136 29.9805C50.2041 29.5379 50.3443 29.074 50.4598 28.6176C50.6454 27.8862 51.2477 27.8628 51.8251 27.8954C52.1982 27.9165 52.5676 28.045 52.932 28.1495C53.0201 28.1748 53.1522 28.3024 53.1442 28.3685C53.0743 28.944 53.7483 29.3549 53.472 30.001C53.4023 30.1641 53.6256 30.4893 53.7712 30.7008C54.0481 31.1021 54.0585 31.1148 53.5479 31.284Z" fill="black"/>
<path fill-rule="evenodd" clip-rule="evenodd" d="M25.5295 19.3128C25.0066 19.5493 24.6384 19.8171 24.4188 20.2555C24.7776 19.9773 25.3778 19.9773 25.5295 19.3128ZM23.4891 11.5394C23.9754 11.4489 24.2129 11.1597 24.4859 10.9375C25.015 10.5065 25.4475 10.644 25.6041 11.3376C25.6722 11.6385 25.689 11.806 26.0981 11.8894C26.5017 11.9719 26.592 12.5485 26.7751 12.9236C27.3397 14.0806 27.5566 15.3239 27.4834 16.6019C27.3858 18.3067 26.5376 19.5855 25.1428 20.5362C24.5036 20.972 23.8464 21.2286 23.0405 21.1339C22.657 21.0887 22.436 20.8439 22.1404 20.6969C21.1237 20.1921 20.0737 19.7549 19.1247 19.1124C18.1035 18.4214 16.9151 15.8334 17.413 14.4613C17.732 13.582 18.2701 13.0519 19.1639 12.8659C19.6779 12.7589 19.913 12.9723 19.9506 13.6011C20.2271 13.4069 20.3609 13.1812 20.4372 12.8789C20.6163 12.1711 20.8796 11.4941 21.2123 10.8395C21.607 10.0622 22.2626 9.68266 23.0696 9.49242C23.3865 9.41775 23.7025 9.45721 23.8951 9.71031C24.0822 9.95609 24.0662 10.2531 23.8962 10.5504C23.7393 10.8248 23.6502 11.1379 23.4891 11.5394Z" fill="black"/>
<path fill-rule="evenodd" clip-rule="evenodd" d="M38.2672 5.90003C38.6666 4.99444 38.8476 4.05956 39.5526 3.39927C39.6606 3.29813 39.7546 3.16626 39.8822 3.10458C40.1859 2.95783 40.5716 2.71961 40.8344 2.94625C41.0622 3.14287 41.0246 3.55832 40.9088 3.89626C40.8528 4.05861 40.6453 4.28146 40.8833 4.40128C41.0846 4.50219 41.1997 4.24152 41.3283 4.10753C41.4025 4.03002 41.4578 3.93383 41.5355 3.86128C41.6806 3.72587 41.7508 3.4326 42.024 3.54083C42.2422 3.62685 42.4345 3.78401 42.4667 4.05176C42.4964 4.30013 42.4943 4.53125 42.8807 4.36299C43.0773 4.27745 43.2151 4.53267 43.3217 4.67683C44.4993 6.26916 44.7431 7.91656 43.2125 9.53938C42.7443 10.0354 42.2634 10.5192 41.7891 11.0093C41.5285 11.2787 41.2118 11.2752 40.8956 11.1629C40.5387 11.0362 40.9235 10.7467 40.7642 10.5149C40.4012 11.0984 40.0519 11.0209 39.5876 10.6C39.2997 10.3393 38.9547 10.0134 38.413 10.2316C38.2136 10.3119 37.834 10.0902 37.6013 9.91891C36.4345 9.06036 35.7322 7.92389 35.7046 6.44499C35.6934 5.85844 35.886 5.33829 36.4792 5.07408C36.5929 5.02351 36.8224 4.96538 36.8311 4.98499C37.1031 5.59683 37.896 5.35247 38.2672 5.90003Z" fill="black"/>
</svg>
