<svg width="132" height="97" viewBox="0 0 132 97" fill="none" xmlns="http://www.w3.org/2000/svg">
<path fill-rule="evenodd" clip-rule="evenodd" d="M75.2237 0.705059C75.2305 0.731266 75.2371 0.757473 75.2439 0.783419H79.2778C79.2759 0.757473 79.2744 0.731266 79.2723 0.705059H75.2237ZM35.8857 32.1322C37.2396 30.7991 38.7212 29.5665 39.4391 27.7326C38.2547 29.1994 37.0703 30.6657 35.8857 32.1322ZM42.8283 16.9402C42.8283 16.6786 42.8496 16.415 42.8252 16.1558C42.4326 11.9776 39.0107 10.8983 35.9546 11.7496C34.9582 12.0268 34.1187 12.568 33.3161 13.1582C32.6009 13.6839 31.8893 14.2657 31.3365 14.9521C29.9571 16.6655 29.1703 18.684 28.7481 20.8235C28.1607 23.8002 28.0415 26.7763 29.1688 29.6771C29.829 31.3748 30.8003 32.8325 32.4012 33.8132C32.8617 34.0951 33.1581 34.0144 33.5138 33.6722C36.1242 31.1605 38.525 28.4792 40.3007 25.2937C41.7503 22.694 42.8024 19.9702 42.8283 16.9402ZM66.7198 2.42793C68.8591 1.9334 70.998 1.43913 73.1372 0.944598C71.4609 1.19278 69.7929 1.51172 68.137 1.88386C67.6516 1.99289 67.2 2.25312 66.7316 2.44234C65.7357 2.42269 64.9811 3.00186 64.2011 3.51579C65.0406 3.15334 65.8804 2.79063 66.7198 2.42793ZM31.7745 35.204C29.136 33.5451 27.5005 31.2294 26.7441 28.3812C25.2981 22.9356 26.1337 17.8351 29.6104 13.3325C31.2429 11.2178 33.4888 9.89567 36.164 9.50125C38.4225 9.16842 40.3974 9.92136 42.0672 11.4464C43.7283 12.963 44.8 14.8551 44.9798 17.088C45.1337 19.0014 44.9641 20.9446 44.2302 22.7639C43.6429 24.2192 43.0395 25.6743 42.3211 27.0669C41.8884 27.9058 41.2466 28.6441 40.6558 29.3936C39.2672 31.1544 37.853 32.8949 36.4707 34.7952C36.9883 34.6471 37.528 34.5504 38.0194 34.3407C39.6053 33.6638 40.8744 32.5458 42.0085 31.281C44.7405 28.2337 46.5644 24.6286 48.2877 20.9622C49.7864 17.7733 51.3115 14.597 53.364 11.7103C57.3842 6.05631 62.7582 2.45308 69.5446 0.938829C73.7012 0.0113554 77.9086 0.169385 82.1165 0.18642C83.7003 0.192709 85.2849 0.064294 86.8693 0.000348383C86.9558 -0.00332063 87.0439 0.0226245 87.2284 0.0483076C87.0365 0.228089 86.9081 0.348642 86.8821 0.372753C87.1073 0.555942 87.3363 0.742537 87.5654 0.92887C87.3689 1.16264 87.216 1.48342 86.9652 1.60947C86.5936 1.79633 86.1577 1.90378 85.7399 1.94152C84.5925 2.04504 83.4395 2.08356 82.29 2.16821C80.9774 2.26518 79.6669 2.39176 78.3541 2.48741C78.0351 2.51074 77.7073 2.42583 77.3901 2.45675C75.8723 2.60456 74.3456 2.70782 72.8438 2.95757C71.4956 3.18217 70.1865 3.63922 68.8393 3.87587C67.813 4.05618 66.8702 4.41784 65.9322 4.82667C63.675 5.81075 61.524 6.92351 59.6616 8.61388C57.0493 10.9846 54.9701 13.7641 53.159 16.735C52.08 18.5055 51.3859 20.507 50.4537 22.3721C49.4907 24.2981 48.4644 26.1932 47.4356 28.0853C46.9172 29.0387 46.4156 30.0205 45.7564 30.8735C44.9153 31.9624 43.9506 32.9612 42.9855 33.9463C42.3591 34.585 41.695 35.2208 40.9462 35.6983C39.2085 36.8073 37.2939 37.1438 35.2857 36.5849C34.673 36.4145 34.2358 36.4714 33.7394 36.9067C30.0664 40.1278 25.9688 42.7037 21.5122 44.6865C18.8532 45.8698 16.1856 47.0667 13.4347 48.0005C9.88646 49.2047 6.20665 49.8761 2.42647 49.7186C1.81526 49.6932 1.19489 49.5745 0.608845 49.3981C0.365097 49.3247 0.200502 48.9874 0 48.7704C0.219897 48.6234 0.427476 48.381 0.662574 48.3506C1.06358 48.2987 1.4824 48.375 1.89258 48.4072C2.16988 48.4289 2.44927 48.5136 2.72106 48.4913C5.65259 48.2492 8.51439 47.6328 11.2991 46.7105C18.5539 44.3076 25.2006 40.7822 31.0626 35.8393C31.2783 35.6574 31.4843 35.4634 31.7745 35.204Z" fill="black"/>
<path fill-rule="evenodd" clip-rule="evenodd" d="M95.2701 76.3681V68.0359C94.1914 70.9318 94.2375 73.6603 95.2701 76.3681ZM127.643 26.848C126.432 30.3076 125.222 33.7677 124.011 37.2279C126.072 34.0532 127.274 30.5895 127.643 26.848ZM123.9 5.56858C126.094 4.89966 127.975 4.89811 129.062 7.19346C129.537 8.19554 129.186 10.0753 128.348 10.9406C129.422 10.7365 130.011 10.9728 130.166 12.1987C130.293 13.2091 130.989 14.1391 131.175 15.1526C131.929 19.2402 132.511 23.3677 131.315 27.4579C131.007 28.5066 129.723 29.3019 130.689 30.5999C129.974 33.4636 129.27 36.3346 127.736 38.902C127.369 39.5155 126.875 40.0533 126.431 40.6196C124.553 43.0129 122.678 45.4088 120.777 47.7834C120.649 47.943 120.298 47.9057 120.074 48.0103C119.879 48.101 119.716 48.2632 119.538 48.3933C120.368 49.4684 119.121 49.8036 118.713 50.1197C117.484 51.071 116.077 51.7922 114.737 52.6005C114.582 52.6948 114.34 52.7321 114.268 52.8663C113.477 54.3347 112.387 55.2829 110.64 55.5622C110.024 55.6612 109.522 56.471 108.789 56.7213C108.684 57.0524 108.68 57.4902 108.458 57.698C106.15 59.8685 103.807 62.0022 101.439 64.1783C101.556 65.4353 99.9449 68.0348 98.6221 68.4395C98.9169 68.6292 99.1293 68.7665 99.1361 68.7706C98.9506 69.5058 98.6397 70.1592 98.6459 70.81C98.6754 74.1287 98.7677 77.4049 100.063 80.595C101.389 83.864 102.245 87.321 103.471 90.635C103.906 91.8091 104.781 92.8345 105.534 93.8708C105.977 94.4817 106.114 94.8858 105.359 95.3418C103.348 96.5584 101.872 96.49 100.594 94.4392C98.8656 91.6682 97.1454 88.7832 96.1112 85.7153C94.835 81.9287 94.1049 77.9308 93.4376 73.9743C92.721 69.7266 94.6459 66.1841 97.1335 62.9348C99.8537 59.3799 103.136 56.441 106.903 54.0016C111.462 51.0503 115.227 47.2326 118.619 43.0041C122.171 38.574 124.745 33.6703 126.003 28.1382C126.965 23.9117 127.337 19.6407 126.198 15.3526C125.371 12.2396 124.626 9.10487 123.854 5.97791C123.823 5.85407 123.882 5.70796 123.9 5.56858Z" fill="black"/>
<path fill-rule="evenodd" clip-rule="evenodd" d="M114.738 24.8098C112.729 25.9248 112.188 25.8803 110.654 24.3715C109.014 22.76 107.453 21.0699 105.852 19.4196C105.591 19.1507 105.262 18.9398 105.033 18.6491C104.629 18.1388 104.278 17.588 103.904 17.0538C104.658 16.9346 105.463 16.5937 106.152 16.7538C106.978 16.946 107.854 17.4201 108.448 18.0268C110.567 20.189 112.575 22.459 114.738 24.8098Z" fill="black"/>
<path fill-rule="evenodd" clip-rule="evenodd" d="M99.3522 39.1221C97.6501 38.6843 95.8739 38.2806 94.1402 37.7397C93.7693 37.6236 93.5532 37.0091 93.2656 36.6247C93.6454 36.3588 93.9931 36.007 94.4138 35.8511C94.8351 35.6936 95.3392 35.6459 95.79 35.6982C97.8413 35.9371 99.888 36.2221 101.934 36.507C102.304 36.5583 102.686 36.6392 103.018 36.7982C103.245 36.907 103.566 37.1993 103.542 37.3661C103.505 37.633 103.262 38.0086 103.024 38.0863C101.873 38.462 100.695 38.7532 99.3522 39.1221Z" fill="black"/>
<path fill-rule="evenodd" clip-rule="evenodd" d="M116.994 82.0238C116.004 83.1881 115.156 83.2555 114.294 82.5529C113.135 81.6088 111.964 80.6648 110.92 79.6016C110.585 79.2606 110.636 78.542 110.511 77.9964C111.295 77.9217 112.377 77.4839 112.81 77.8388C114.311 79.0689 115.586 80.5746 116.994 82.0238Z" fill="black"/>
<path fill-rule="evenodd" clip-rule="evenodd" d="M123.134 73.6436C120.232 74.9089 118.224 72.7871 115.921 71.9659C115.711 71.8902 115.483 71.142 115.575 71.0612C116.032 70.6601 116.77 69.9783 117.089 70.1192C119.112 71.0151 121.052 72.099 123.01 73.1374C123.087 73.1783 123.075 73.3871 123.134 73.6436Z" fill="black"/>
<path fill-rule="evenodd" clip-rule="evenodd" d="M106.243 28.5804C105.538 28.6711 104.756 29.0016 104.143 28.8058C102.461 28.2669 100.833 27.5421 99.2222 26.8068C98.8792 26.6503 98.6978 26.1395 98.4424 25.7913C98.8626 25.5705 99.3445 25.0923 99.6921 25.1752C101.086 25.5078 102.468 25.9415 103.796 26.483C104.708 26.855 105.523 27.4664 106.381 27.9711C106.335 28.1742 106.289 28.3773 106.243 28.5804Z" fill="black"/>
<path fill-rule="evenodd" clip-rule="evenodd" d="M122.609 59.7352C122.389 60.2352 122.357 60.5016 122.208 60.6171C120.645 61.8223 119.103 63.0612 117.464 64.1534C116.998 64.4632 116.235 64.3265 115.567 64.1627C117.622 62.2757 119.467 60.2083 122.609 59.7352Z" fill="black"/>
<path fill-rule="evenodd" clip-rule="evenodd" d="M58.3103 87.4707C58.4254 87.58 58.5399 87.6899 58.6549 87.7992C59.3046 87.2209 59.9544 86.6427 60.6041 86.0645C60.501 85.9489 60.3969 85.8339 60.2932 85.7189C59.6326 86.3028 58.971 86.8867 58.3103 87.4707ZM46.2656 88.2422C46.2978 88.3816 46.3299 88.5204 46.362 88.6598C47.8988 88.3236 49.4356 87.9868 50.9729 87.6505C50.9372 87.494 50.9009 87.3375 50.8657 87.1811C49.332 87.5349 47.7988 87.8888 46.2656 88.2422ZM38.1449 78.209C38.1786 78.3411 38.2123 78.4727 38.246 78.6048C40.5382 79.1349 42.3646 77.8483 44.3123 77.0364C44.2838 76.925 44.2553 76.8141 44.2268 76.7027C42.1994 77.2048 40.1719 77.7069 38.1449 78.209ZM44.2669 91.3749C46.696 91.8567 51.4085 90.5997 53.353 89.0904C50.0742 89.9148 47.1706 90.6448 44.2669 91.3749ZM19.2467 67.9747C18.9798 65.7452 19.4249 63.5773 20.4705 61.4995C21.2156 60.0197 22.3089 59.0954 24.0068 59.1669C25.4503 59.2275 26.7617 59.5886 27.3182 61.2078C27.4602 61.6228 27.9628 61.9037 28.1633 62.313C28.311 62.613 29.2131 63.1741 28.0255 63.3467C28.0695 63.571 28.0358 63.913 28.17 64.0016C29.6011 64.9498 29.9405 66.4104 29.3017 67.9162C28.8965 68.8685 28.6664 69.9768 28.7037 71.0032C28.725 71.5763 29.3317 72.3457 29.8825 72.6442C32.4224 74.0235 35.1649 74.2981 37.967 73.6359C45.538 71.8483 52.3459 68.7187 56.8941 62.0612C58.2853 60.0249 59.1734 57.6456 60.3055 55.43C60.8599 54.3435 61.3734 53.2264 62.0361 52.2083C62.7599 51.0979 63.8646 50.659 65.2149 50.8046C66.9496 50.9917 67.3315 51.3984 67.0957 53.1233C67.003 53.8026 67.0455 54.1679 67.8755 54.2435C68.1807 54.2715 68.59 54.8109 68.688 55.186C69.6097 58.7005 69.588 62.2907 69.0631 65.8312C68.5134 69.541 67.8662 73.2706 66.8201 76.8629C65.8024 80.3577 64.4864 83.8427 61.7112 86.4515C59.0019 88.9992 55.793 90.7018 52.2417 91.7578C47.15 93.2718 42.0059 93.8117 36.8188 92.2878C35.8628 92.0065 34.983 91.4231 34.1105 90.9075C32.9602 90.2277 31.7198 89.6199 30.755 88.7251C29.1939 87.2764 27.1814 86.3686 26.2317 84.1354C25.612 82.6784 23.9244 81.7152 22.9363 80.3681C20.2617 76.7214 18.9726 72.612 19.2467 67.9747Z" fill="black"/>
</svg>
