<svg width="73" height="140" viewBox="0 0 73 140" fill="none" xmlns="http://www.w3.org/2000/svg">
<path fill-rule="evenodd" clip-rule="evenodd" d="M2.09817 127.546C2.01604 128.544 2.29939 129.461 2.65922 130.497C3.81571 129.149 1.86256 128.572 2.09817 127.546ZM64.9621 42.0256C66.2084 40.8347 67.1442 39.4493 67.6934 37.8252C66.7833 39.225 65.8727 40.6253 64.9621 42.0256ZM53.4446 45.373C55.7587 43.3721 57.93 41.2506 59.2666 38.4274C57.3453 40.7589 55.3295 43.0108 53.4446 45.373ZM12.9205 78.1493C5.72899 86.2329 0.321263 109.063 1.62456 119.714C2.32471 112.365 3.01922 105.214 4.75524 98.2244C6.51281 91.1489 8.96643 84.346 12.9205 78.1493ZM9.18198 102.255C8.16459 104.085 7.90589 106.151 7.59379 108.144C6.76531 113.429 6.18065 118.756 6.50866 124.12C6.78174 128.585 6.91212 133.063 7.62613 137.493C7.87714 139.052 7.84018 139.055 6.32335 139.258C6.21248 139.273 6.10468 139.372 6.01074 139.45C5.1489 140.175 3.97034 139.857 3.533 138.748C2.23021 135.447 1.53109 131.986 0.901254 128.513C-0.211089 122.38 -0.205956 116.199 0.439788 110.034C0.830417 106.302 1.45204 102.588 2.32774 98.9255C3.77425 92.8777 5.40144 86.8981 8.5352 81.455C12.691 74.2373 18.0284 68.0668 24.6496 62.9743C30.8047 58.2395 37.742 54.7151 44.0742 50.2929C56.7648 41.4301 64.0692 29.5978 62.6935 13.5374C62.4076 10.2034 61.6803 6.90848 61.1983 3.58993C61.0058 2.26611 61.2845 1.07831 62.5472 0.319121C63.656 -0.347668 65.2062 0.0573332 66.7092 1.28312C68.38 2.64647 69.2172 4.51184 69.8491 6.45369C71.2217 10.67 72.1395 14.9844 72.4064 19.4317C73.0049 29.432 69.9908 38.0916 63.2315 45.552C57.5953 51.7718 50.8884 56.3911 43.3951 60.0428C38.1132 62.6165 33.3717 66.0793 28.6488 69.5534C25.0273 72.2169 22.0604 75.5391 19.2311 78.9629C17.7117 80.8015 16.4176 82.8774 15.5316 85.1482C15.4331 85.3987 15.2308 85.6082 15.084 85.8269C14.5902 85.679 15.1805 85.3269 14.8751 85.1452C13.2392 87.374 12.5878 90.057 11.4621 92.5184C11.2419 92.9993 11.1993 92.8084 10.5438 93.0517C9.92987 93.2796 9.57928 94.0347 9.82413 94.9217C10.2692 94.5675 10.1254 93.95 10.8497 93.6759C10.8466 95.0089 10.3682 96.1346 10.1152 97.2911C9.77895 98.8264 9.08547 100.29 9.18967 101.914C9.18762 102.028 9.18454 102.142 9.18198 102.255Z" fill="black"/>
<path fill-rule="evenodd" clip-rule="evenodd" d="M11.8046 42.9867C10.5957 42.9867 9.38482 43.0159 8.177 42.9759C7.40857 42.9507 6.74178 42.5719 6.15353 42.1043C5.77984 41.8071 5.54474 41.3857 5.67666 40.8698C5.85119 40.1907 6.24336 40.6609 6.60524 40.6485C13.6053 40.4129 20.5185 39.3468 27.4477 38.4223C29.0533 38.2083 30.6913 38.1882 32.3144 38.1888C32.822 38.1893 33.6228 38.0825 33.667 39.0178C33.7044 39.8129 33.1465 40.0439 32.5392 40.2086C29.3854 41.0633 26.1393 41.4041 22.9229 41.8974C19.2409 42.4626 15.5235 42.711 11.8046 42.9867Z" fill="black"/>
<path fill-rule="evenodd" clip-rule="evenodd" d="M48.0801 27.4084C47.325 27.2287 46.4986 26.8299 46.0474 26.0461C43.8638 22.2532 41.8485 18.369 40.0797 14.3647C39.6131 13.3088 39.9914 13.5049 41.0083 13.1153C43.4922 12.1631 44.0691 14.1332 45.0783 15.4005C46.8605 17.6391 48.1679 20.1584 49.1124 22.8635C49.3578 23.5673 49.6308 24.2618 49.907 24.9537C50.6708 26.871 50.3685 27.315 48.0801 27.4084Z" fill="black"/>
<path fill-rule="evenodd" clip-rule="evenodd" d="M42.2696 31.3996C40.2867 32.5776 38.7139 31.5592 37.0349 30.7918C33.8827 29.352 31.0902 27.3393 28.1957 25.4857C27.6701 25.149 26.8067 24.7615 27.0459 24.1111C27.2799 23.4741 28.2255 23.6055 28.8876 23.5921C29.8681 23.5716 30.6611 24.166 31.449 24.6152C34.7558 26.497 38.0184 28.4573 41.2897 30.4012C41.6757 30.6301 42.1064 30.8473 42.2696 31.3996Z" fill="black"/>
</svg>
