<svg width="201" height="279" viewBox="0 0 201 279" fill="none" xmlns="http://www.w3.org/2000/svg">
<path fill-rule="evenodd" clip-rule="evenodd" d="M7.27879 88.2685C7.1577 87.8152 6.92634 87.571 6.49947 87.6535C5.7648 87.7949 5.3535 88.2468 5.31155 89.0059C5.28855 89.4219 5.53344 89.5024 5.87981 89.4408C6.59148 89.3143 6.9216 88.7589 7.27879 88.2685ZM3.51968 221.912C4.24555 219.871 4.71571 217.765 5.32591 215.696C4.12987 217.592 3.48247 219.653 3.51968 221.912ZM8.89966 84.0357C11.9276 80.7709 15.0875 77.6354 18.2968 74.5486C14.3968 76.9562 11.3844 80.2358 8.89966 84.0357ZM68.5751 51.7238C74.8265 48.896 80.026 44.6599 84.9888 40.0949C79.8116 43.9847 74.6412 47.8786 69.1142 51.2705C68.9167 51.3923 68.7543 51.5716 68.5751 51.7238ZM140.072 208.832C138.255 215.04 134.648 220.305 132.833 226.331C135.116 224.72 141.013 210.854 140.072 208.832ZM66.7476 270.55C67.9666 270.55 69.1971 270.656 70.4033 270.531C75.3458 270.023 80.2233 269.086 85.1001 268.162C92.3358 266.793 99.0101 263.718 105.858 261.195C109.017 260.03 112.039 258.441 114.179 255.639C121.252 246.377 126.947 236.407 130.99 225.401C134.217 216.619 138.415 208.197 141.864 199.489C144.326 193.273 145.898 186.761 146.602 180.078C147.188 174.51 146.859 168.927 146.899 163.348C146.931 158.76 146.85 154.175 147.139 149.572C147.342 146.33 146.615 142.953 146.337 139.632C145.846 133.785 145.935 128.01 147.712 122.337C149.352 117.104 151.575 112.121 154.335 107.413C159.922 97.8814 166.926 89.3901 174.272 81.1917C178.218 76.7891 182.089 72.3432 185.351 67.4082C191.355 58.3277 194.236 48.2987 193.987 37.4396C193.793 28.9504 190.075 22.3593 182.751 17.8809C170.021 10.0972 156.58 7.60638 142.152 12.3466C130.978 16.0179 121.029 21.8513 111.927 29.2602C106.251 33.8813 101.068 39.0544 95.4071 43.6891C87.6972 50.0028 79.8641 56.1284 70.7835 60.4214C63.7561 63.7443 56.3695 66.0816 48.9403 68.2789C42.5982 70.1548 36.5504 72.6869 30.8367 76.0105C24.2423 79.8462 18.6734 84.7534 14.8187 91.4392C14.3608 92.2354 14.3432 92.2253 13.3 92.2469C12.9834 92.2537 12.9638 92.5169 12.8576 92.7279C11.8929 94.6525 11.2631 96.6604 11.2374 98.8366C11.2198 100.307 11.7874 102.409 11.2841 103.117C9.66794 105.387 10.885 107.586 11.1826 109.5C11.5526 111.873 12.1743 114.335 12.9016 116.713C14.7261 122.682 16.8225 128.545 19.7957 134.028C22.522 139.059 25.163 144.134 25.9497 149.831C26.177 151.483 28.1673 153.368 26.0431 155.132C26.0424 155.132 26.1919 155.297 26.2555 155.395C27.3832 157.133 27.9528 159.094 28.0387 161.11C28.1219 163.035 28.8099 164.834 28.8925 166.737C29.0257 169.809 30.165 172.794 29.5067 175.949C29.2077 177.384 29.2774 178.907 29.2747 180.39C29.2686 183.692 28.1497 186.839 27.9765 190.149C27.9116 191.389 26.8285 192.964 26.2318 194.384C24.0928 199.474 20.2983 203.351 16.9693 207.598C13.8372 211.593 10.3181 215.509 9.9886 220.986C9.85601 223.195 9.19846 225.527 10.3383 227.601C13.4049 233.173 15.0176 239.49 19.2247 244.486C22.499 248.374 24.6975 253.085 28.6868 256.464C32.5881 259.768 36.3129 263.325 40.8197 265.766C43.0318 266.964 45.2751 268.19 47.8721 268.763C54.1121 270.141 60.3892 270.638 66.7476 270.55ZM118.391 13.3917C118.735 13.2875 119.108 13.2354 119.42 13.0697C127.21 8.92688 135.328 5.64589 143.939 3.6313C144.25 3.55824 144.677 3.56907 144.861 3.09079C144.279 3.17399 143.732 3.23894 143.189 3.33297C136.04 4.57636 129.413 7.30465 122.976 10.5356C121.374 11.3399 119.621 11.9643 118.423 13.4296C116.504 13.5635 115.333 15.1831 113.672 15.8494C113.381 15.9658 113.067 16.4948 113.511 16.944C113.658 17.0928 113.862 17.1889 113.953 17.0137C114.92 15.1702 117.265 15.0261 118.391 13.3917ZM96.6277 41.4337C98.8561 40.0475 100.629 38.154 102.399 36.2585C100.493 38.0018 98.1904 39.3095 96.6636 41.4715C95.0366 42.0479 93.9968 43.3691 92.8353 44.534C94.3114 43.7642 95.5785 42.7332 96.6277 41.4337ZM145.8 218.697C144.506 222.235 143.268 225.752 140.65 228.665C139.067 230.426 137.806 232.545 136.762 234.68C136.384 235.455 135.689 235.689 135.293 236.382C134.37 238 134.031 239.827 132.848 241.398C130.183 244.94 127.552 248.498 124.77 251.958C122.934 254.24 121.215 256.638 119.308 258.867C115.753 263.02 111.215 265.805 106.179 267.788C100.359 270.079 94.5941 272.565 88.645 274.465C77.5587 278.006 66.243 279.432 54.5323 278.035C47.4772 277.194 40.606 275.861 34.5596 272.258C24.8898 266.495 16.918 258.82 11.2876 248.919C11.0765 248.548 10.8052 248.211 10.5516 247.866C8.25013 244.736 6.17263 241.503 5.11595 237.691C4.59235 235.805 3.81912 233.995 2.96538 232.216C0.433277 226.94 0.919675 221.626 2.96471 216.334C5.02327 211.007 8.4612 206.485 12.3043 202.475C17.4396 197.117 19.8493 190.904 20.6164 183.722C21.3301 177.042 20.1577 170.573 18.9678 164.079C18.2379 160.095 17.585 156.094 16.801 152.12C15.5359 145.715 12.5892 140.005 9.5632 134.281C5.624 126.828 2.61293 118.983 0.792494 110.709C-0.730964 103.786 0.0199411 96.9878 2.37751 90.4603C3.73591 86.6997 5.50155 83.0088 8.36311 79.9625C11.1489 76.9961 13.9597 74.0913 17.282 71.7222C25.2666 66.0268 34.0691 62.0314 43.402 59.1232C54.0574 55.803 64.4348 51.8746 73.539 45.1861C80.285 40.2302 86.7035 34.8818 92.8684 29.2237C101.263 21.5191 110.055 14.3469 120.216 9.04257C130.066 3.90123 140.353 -0.100889 151.612 0.00193768C168.558 0.156854 183.068 6.14515 193.346 20.0836C200.947 30.3933 202.179 42.2069 199.696 54.5407C199.247 56.7677 198.793 58.994 198.273 61.2048C196.936 66.8839 194.626 72.1058 191.233 76.8953C189.256 79.6865 187.123 82.3593 185.145 85.1208C182.821 88.3618 180.235 91.3316 177.56 94.227C174.463 97.5804 171.72 101.179 169.112 104.904C168.203 106.202 166.763 106.989 165.884 108.385C162.562 113.665 159.108 118.867 156.736 124.675C155.455 127.809 154.15 130.866 153.897 134.399C153.744 136.565 153.876 138.724 153.687 140.876C153.404 144.101 153.96 147.278 154.473 150.429C154.67 151.639 153.203 152.618 153.519 152.702C155.229 153.156 154.027 154.117 154.062 154.815C154.082 155.228 153.82 155.681 153.914 156.06C155.501 162.499 154.815 169.076 154.95 175.58C155.076 181.618 155.603 187.77 153.971 193.687C153.375 195.845 152.941 198.062 152.312 200.219C151.558 202.807 150.167 205.234 149.934 207.934C149.608 211.736 147.686 214.923 146.302 218.323C146.226 218.509 145.945 218.613 145.757 218.762C145.934 216.737 147.592 215.228 147.651 213.145C146.23 216.165 144.456 219.025 143.72 222.353C144.414 221.134 145.106 219.916 145.8 218.697Z" fill="black"/>
<path fill-rule="evenodd" clip-rule="evenodd" d="M83.3898 70.9981C87.3588 68.669 90.5769 65.4773 93.5893 62.0516C90.2021 65.0491 86.8724 68.1109 83.3898 70.9981ZM106.333 51.064C106.201 50.9233 106.069 50.7826 105.938 50.6419C102.46 53.8193 98.6924 56.6728 95.6725 60.363L106.333 51.064ZM26.3805 219.432C24.3423 221.455 23.4141 227.73 24.7515 229.022C25.1331 225.844 25.1432 222.547 26.3805 219.432ZM41.8128 93.0274C37.0307 96.2685 32.7627 99.9865 30.6967 105.645C33.9851 101.07 37.5976 96.7887 41.8128 93.0274ZM112.862 45.2996C120.857 39.0366 129.242 33.4772 138.623 29.5319C132.477 30.3458 115.43 41.6114 112.862 45.2996ZM110.049 194.678C108.138 198.494 106.955 202.58 105.83 206.658C104.679 210.828 103.126 214.853 101.778 218.946C100.504 222.816 98.6635 226.499 97.0724 230.264C103.882 219.282 106.422 206.792 110.049 194.678ZM41.6421 133.425C41.6739 133.19 41.6218 132.852 41.7558 132.743C41.9979 132.545 42.1231 132.846 42.2841 133.024C42.74 133.525 42.527 134.281 43.152 134.782C44.3054 135.705 45.099 136.867 45.6733 138.335C46.1631 139.587 47.4998 140.497 48.4111 141.599C48.6147 141.845 48.8697 142.26 48.6073 142.609C48.1195 143.257 48.5105 143.469 49.0476 143.622C49.7113 143.808 50.0624 144.31 50.2877 144.889C51.1008 146.972 52.1832 148.951 52.4254 151.246C52.5816 152.727 52.8204 154.497 53.3691 155.577C54.8966 158.588 54.9521 161.762 54.8073 164.777C54.6761 167.507 54.1511 170.304 54.2769 173.039C54.3852 175.402 53.1966 177.328 52.8658 179.528C52.4653 182.192 50.6185 184.517 50.2545 187.286C50.0299 188.987 48.2345 190.279 48.2501 191.626C48.2852 194.74 45.5272 196.416 45.0401 199.224C44.8852 200.117 44.5192 201.454 43.7426 202.304C42.1468 204.048 41.68 206.461 40.0273 208.199C37.9464 210.386 36.8661 213.316 34.6472 215.487C33.3145 216.792 32.2727 218.475 31.1064 219.977C30.0497 221.335 30.1445 223.442 29.7954 225.238C29.2894 227.838 30.781 229.863 31.4541 232.146C33.0628 237.603 36.4155 242.114 40.3405 245.753C48.0059 252.862 57.1865 255.198 67.3941 251.477C68.4305 251.1 69.4655 250.72 70.5107 250.368C76.6397 248.311 81.9346 244.909 86.8527 240.735C93.2888 235.271 96.3364 227.653 99.9022 220.441C101.15 217.919 101.635 214.827 102.576 212.026C103.221 210.109 103.915 208.195 104.359 206.227C104.806 204.243 105.416 202.315 106.01 200.38C106.602 198.45 107.437 196.585 107.906 194.628C108.325 192.888 109.18 191.334 109.541 189.53C110.023 187.119 110.809 184.718 111.464 182.311C113.818 173.658 115.579 164.89 116.64 155.98C117.228 151.041 117.656 146.056 118.679 141.202C121.983 125.512 129.208 111.649 139.159 99.1902C143.607 93.622 148.325 88.2683 152.982 82.8692C159.649 75.1389 163.267 65.938 165.993 56.2858C167.688 50.2846 167.394 44.3559 165.192 38.5644C163.935 35.2638 162.064 32.5078 158.116 31.8563C154.44 31.2495 150.854 32.1202 147.378 32.7628C145.311 33.1457 143.06 34.1287 140.986 35.1319C136.01 37.5396 130.963 39.8132 126.637 43.3175C125.607 44.1509 124.324 44.2625 123.295 45.0953C121.977 46.1608 121.056 47.5997 119.619 48.5569C118.793 49.1055 117.804 49.159 117.043 49.8625C112.217 54.3206 106.762 58.0704 102.406 63.0683C100.894 64.8042 99.0261 66.2255 97.3789 67.8491C91.1937 73.9422 83.9959 78.5011 75.8874 81.4797C65.9471 85.1314 56.6704 90.0265 47.9923 96.0073C44.6741 98.2939 41.1198 100.451 38.7406 103.927C37.3613 105.944 35.5875 108 35.3724 110.31C35.0531 113.727 34.7054 117.295 35.8689 120.699C36.1497 121.521 35.6491 122.665 35.8236 122.946C36.4967 124.024 36.9026 125.243 37.6319 126.276C39.2067 128.511 41.3783 130.42 41.6421 133.425ZM39.7557 199.322C40.2793 199.125 40.4092 198.601 40.5898 198.183C42.3095 194.201 44.1685 190.268 45.3192 186.068C45.9923 183.61 47.1734 181.268 47.1349 178.633C45.9463 183.294 43.8749 187.639 42.4035 192.195C41.6228 194.613 40.1623 196.786 39.795 199.358C37.6931 202.131 36.6614 205.46 34.9621 208.442C36.7595 205.506 38.8722 202.731 39.7557 199.322ZM117.774 188.244C117.701 187.796 117.771 187.397 117.324 187.172C117.245 187.862 116.689 188.521 117.603 189.126C118.134 189.477 117.634 190.048 117.498 190.473C116.275 194.293 115.085 198.13 113.903 201.957C112.779 205.601 111.436 209.194 110.593 212.926C110.17 214.799 109.262 216.483 108.574 218.251C108.257 219.062 107.99 219.837 107.99 220.719C107.99 222.513 107.865 222.56 106.206 221.617C106.068 221.538 105.858 221.586 105.634 221.572C105.634 221.771 105.573 221.969 105.643 222.087C106.701 223.843 106.477 225.949 105.234 227.641C104.414 228.757 103.668 229.886 103.314 231.353C102.781 233.56 101.268 235.298 99.5106 236.749C99.3509 236.881 98.9876 236.82 98.9707 237.128C98.872 238.947 97.4074 239.82 96.3027 240.904C95.248 241.938 93.9478 242.694 92.9567 243.829C91.2608 245.775 89.3531 247.386 87.0286 248.681C85.9557 249.279 84.8659 250.415 83.6712 250.883C79.2571 252.614 74.9289 254.55 70.458 256.163C62.9036 258.888 55.4663 258.089 47.9687 256.269C43.558 255.199 39.5707 253.226 35.9258 250.516C34.5322 249.48 33.4045 248.218 32.2592 246.937C27.883 242.047 24.8151 236.448 23.2741 230.084C22.2871 226.008 22.9094 222.023 24.9511 218.354C25.4882 217.388 25.9016 216.122 27.7139 216.341C28.5033 216.436 29.2867 214.968 29.899 214.035C34.2278 207.446 37.7476 200.446 40.5821 193.093C43.5661 185.352 46.1699 177.531 47.1752 169.221C47.9051 163.19 47.0899 157.405 45.6199 151.584C44.4428 146.923 42.0102 143.026 39.2325 139.23C37.1509 136.387 35.2892 133.384 33.2341 130.521C32.5055 129.506 33.4248 128.858 33.6406 127.553C32.5156 129.083 32.3309 128.776 31.852 127.518C31.373 126.26 30.4949 125.086 29.8015 123.867C28.3187 121.257 27.471 118.411 27.4426 115.479C27.4318 114.367 26.8507 113.439 27.0009 112.387C27.1896 111.059 27.2823 109.698 27.6577 108.422C28.3207 106.164 28.7367 103.784 30.9435 102.251C31.553 101.828 31.191 100.514 31.8838 99.7707C34.8482 96.5878 37.6394 93.1959 41.3465 90.8356C50.1666 85.2193 59.4048 80.4359 69.082 76.4053C75.8199 73.5986 82.2526 70.0531 87.5631 64.8387C95.3779 57.1659 103.598 49.9437 112.055 42.9941C120.072 36.4064 128.662 30.753 138.513 27.2156C142.649 25.7307 146.89 24.8493 151.273 24.5469C157.529 24.1153 162.214 26.9626 165.849 31.692C172.829 40.7752 174.467 50.9977 171.781 61.9907C169.976 69.384 167.317 76.4737 163.566 83.1101C161.805 86.2246 160.128 89.3771 157.223 91.7468C155.838 92.8772 155.096 94.7863 154.031 96.3206C150.389 101.566 145.808 106.064 142.184 111.341C140.57 113.691 139.205 116.169 137.684 118.562C134.363 123.782 132.096 129.544 129.6 135.162C127.41 140.092 126.618 145.478 125.828 150.817C124.978 156.57 124.079 162.316 123.099 168.048C122.534 171.358 122.139 174.777 120.961 177.878C120.144 180.034 120.113 182.329 119.134 184.418C118.572 185.616 119.176 187.257 117.774 188.244Z" fill="black"/>
<path fill-rule="evenodd" clip-rule="evenodd" d="M97.3961 164.65C97.5801 164.747 97.7648 164.844 97.9488 164.941C98.54 163.372 100.22 162.256 99.4472 160.114C98.7633 161.626 98.08 163.138 97.3961 164.65ZM62.1661 105.652C58.3297 106.372 54.3952 109.985 54.795 112.432C56.6527 109.399 59.3451 107.455 62.1661 105.652ZM94.6743 82.465C94.562 82.3155 94.4491 82.1667 94.3368 82.0185C89.2252 86.4489 84.1129 90.8799 79.002 95.3109C79.1103 95.4374 79.2192 95.5639 79.3281 95.6911L94.6743 82.465ZM109.432 68.3676C114.237 64.8194 119.175 61.4769 124.483 58.6965C129.848 55.8857 135.276 53.2129 140.78 50.72C129.597 55.287 118.547 60.1002 109.432 68.3676ZM74.9046 211.848C76.1974 209.741 77.7662 207.882 78.8208 205.578C81.2082 200.365 83.9791 195.325 86.2507 190.047C89.6366 182.184 93.1996 174.404 97.377 166.92C97.6381 166.451 97.881 165.98 97.1876 165.3C88.8789 180.526 82.9718 196.709 74.9046 211.848ZM109.916 76.4902C107.749 77.4596 106.679 79.5547 105.124 81.1533C103.082 82.3398 101.953 84.4769 100.136 85.9104C97.0034 88.3816 93.7874 90.7737 90.8568 93.4715C84.7921 99.0559 78.0955 103.617 70.6696 107.206C67.9129 108.54 64.6969 108.824 62.3413 111.13C60.9004 112.54 59.149 113.68 59.0191 115.888C58.8263 119.159 59.3377 122.32 60.9139 125.261C63.8283 130.697 67.7539 135.45 71.1851 140.536C74.7509 145.822 77.9372 151.201 78.749 157.784C79.5242 164.081 79.0574 170.322 78.6874 176.574C78.6123 177.841 77.7552 179.048 77.7085 180.515C77.6442 182.563 77.6233 184.84 76.3224 186.519C73.9756 189.548 73.1977 193.243 71.6614 196.605C71.158 197.708 71.4665 199.333 70.4985 200.176C69.2064 201.303 68.8587 202.786 68.2403 204.202C67.9995 204.754 67.6646 205.31 67.2405 205.731C65.8408 207.123 64.9594 208.96 63.9845 210.548C62.0707 213.666 59.9405 216.426 57.2521 218.872C56.4775 219.578 55.2537 219.492 54.7883 220.592C54.3229 221.69 53.4671 222.502 52.5701 223.259C51.6541 224.032 51.186 225.044 50.822 226.227C51.4938 226.42 51.9274 226.146 52.3699 225.983C55.1529 224.964 57.5328 223.166 60.2205 221.943C64.935 219.799 68.9121 216.688 72.0612 212.529C74.4174 209.417 76.0166 205.896 77.7031 202.422C81.045 195.539 84.441 188.678 87.5751 181.699C89.3306 177.789 91.1565 173.92 93.0994 170.108C96.3276 163.777 99.204 157.282 102.007 150.763C104.253 145.542 106.111 140.159 107.327 134.578C108.388 129.705 110.238 125.087 112.046 120.46C115.489 111.651 118.991 102.877 124.666 95.1729C129.766 88.251 134.931 81.3758 139.539 74.1036C142.978 68.6754 145.964 63.0571 147.429 56.7461C147.586 56.069 148.088 55.1807 147.512 54.6828C147.025 54.2607 146.229 54.8154 145.613 55.059C139.151 57.6161 132.93 60.661 126.912 64.1443C125.825 64.7734 124.859 66.1961 123.195 65.5006C122.96 65.4025 122.47 65.732 122.613 66.0141C123.117 67.0112 122.138 66.999 121.764 67.2466C119.397 68.8114 117.06 70.414 114.751 72.0653C112.945 73.3567 111.69 75.1974 109.916 76.4902ZM62.219 204.075C62.7406 204.039 62.8901 203.616 63.0815 203.24C65.5034 198.487 67.2994 193.458 69.4987 188.609C70.5534 186.281 70.1928 183.489 71.9645 181.419C72.2676 181.064 72.1722 180.715 71.7494 180.534C71.1947 180.296 70.8963 180.666 70.8341 181.119C70.5933 182.887 69.749 184.437 69.1625 186.083C67.6512 190.323 66.3564 194.623 64.3344 198.689C63.4942 200.379 62.5627 202.159 62.2616 204.116C60.7672 206.096 59.7004 208.301 58.8663 210.626C59.9128 208.407 61.92 206.68 62.219 204.075ZM127.856 101.033C128.512 102.143 128.289 102.841 127.848 103.917C126.773 106.539 124.578 108.6 124.163 111.526C124.016 112.57 123.205 113.359 122.708 114.238C121.444 116.474 121.201 119.077 120.064 121.256C118.985 123.323 118.522 125.587 117.422 127.609C116.838 128.682 117.043 130.018 116.282 131.058C115.769 131.759 114.5 136.122 114.352 136.961C113.982 139.076 113.552 141.18 113.125 143.285C113.052 143.646 112.89 144.018 112.398 143.94C111.89 143.86 111.645 144.091 111.84 144.541C112.569 146.23 111.698 147.742 111.05 149.068C109.163 152.922 107.524 156.882 105.868 160.827C105.54 161.609 104.015 161.397 104.559 162.955C104.833 163.741 103.947 165.104 103.334 166.122C102.738 167.115 102.336 168.223 101.796 169.253C97.8147 176.842 94.1562 184.583 90.6899 192.423C88.7673 196.771 86.4727 200.953 84.4472 205.258C83.9358 206.346 83.6009 207.567 83.2573 208.731C82.9414 209.8 82.478 211.333 81.1723 212.004C80.9302 212.129 80.7793 212.239 80.7002 212.487C79.1036 217.515 74.8147 220.145 70.9898 223.089C68.2514 225.198 64.9115 226.443 61.8044 227.9C59.8818 228.802 58.1135 230.236 55.8736 230.552C53.6283 230.87 51.3979 231.275 49.1215 231.321C46.9135 231.366 44.8718 230.849 43.0433 229.58C42.0854 228.916 41.9399 228.072 42.358 227.005C43.3937 224.359 44.9557 222.144 47.3613 220.571C48.2827 219.968 49.2677 219.446 49.8812 218.461C50.3189 217.758 51.0604 218.643 51.8735 217.843C54.7506 215.013 56.5427 211.572 58.3881 208.113C62.2103 200.948 65.0556 193.373 67.7954 185.756C68.9806 182.459 69.5976 179.023 70.1367 175.567C70.4777 173.385 70.707 171.202 70.8531 169.002C70.9201 167.982 71.3307 167.144 72.5829 167.765C73.3298 168.136 73.5598 167.593 73.9102 167.208C74.1592 166.935 74.1084 166.623 73.8689 166.393C73.4319 165.974 73.0524 166.41 72.7108 166.577C71.3091 167.258 70.8511 166.852 70.9221 165.319C71.1197 161.095 71.2266 156.87 70.1293 152.717C69.5834 150.648 68.8169 148.662 67.8177 146.787C64.8973 141.303 61.1252 136.36 57.7894 131.138C55.3493 127.316 52.8395 123.494 52.3268 118.829C52.207 117.743 51.3452 116.42 52.847 115.539C52.9302 115.491 53.0032 115.336 52.9965 115.238C52.7056 110.97 52.8375 110.863 55.7376 107.873C57.6196 105.932 59.915 104.582 62.2536 103.507C70.8586 99.5498 78.1099 93.7929 85.2083 87.632C93.8491 80.1318 101.721 71.7636 110.698 64.6882C120.533 56.9383 131.783 51.6278 143.723 47.9592C150.026 46.0231 154.696 50.7267 153.322 57.2677C151.95 63.7986 149.474 69.9114 146.184 75.7272C142.407 82.4028 138.079 88.7273 133.892 95.135C132.743 96.8932 131.769 98.8002 130.368 100.422C129.642 101.263 129.102 102.002 127.856 101.033Z" fill="black"/>
<path fill-rule="evenodd" clip-rule="evenodd" d="M109.914 76.4904C108.828 78.5692 107.119 80.0101 105.122 81.1534C106.677 79.5549 107.748 77.4598 109.914 76.4904Z" fill="black"/>
</svg>
