<svg width="193" height="204" viewBox="0 0 193 204" fill="none" xmlns="http://www.w3.org/2000/svg">
<path fill-rule="evenodd" clip-rule="evenodd" d="M73.8969 114.776C73.9335 114.914 73.9697 115.052 74.0068 115.19C74.7671 114.961 75.5275 114.733 76.2878 114.504C76.2611 114.404 76.2343 114.304 76.2076 114.204C75.4374 114.394 74.6671 114.585 73.8969 114.776ZM159.703 27.4856C159.709 27.3761 159.714 27.2665 159.72 27.1574C155.611 26.9522 151.502 26.7464 147.394 26.5407C147.387 26.6726 147.381 26.8044 147.374 26.9363C151.484 27.1192 155.593 27.3027 159.703 27.4856ZM92.5295 95.8214C110.183 92.9974 127.547 89.066 144.16 82.2466C127.286 88.063 110.058 92.518 92.5295 95.8214ZM86.7924 89.888C86.8196 90.0045 86.8468 90.121 86.8745 90.2375C90.9198 89.4854 94.9744 88.7794 99.0087 87.9713C109.662 85.837 120.286 83.5659 130.722 80.5129C134.946 79.277 139.131 77.9042 143.317 76.5383C145.44 75.8452 147.524 75.0282 149.627 74.2701C150.435 73.9791 151.247 73.6965 152.056 73.41C152.008 73.2667 151.959 73.1234 151.911 72.9801C130.721 80.5997 108.916 85.8563 86.7924 89.888ZM143.626 89.6123C143.547 89.4884 143.468 89.3644 143.39 89.2405C141.774 90.112 140.193 91.059 138.534 91.8413C134.699 93.6509 130.865 95.4664 126.962 97.1198C122.326 99.0845 117.631 100.914 112.93 102.719C112.201 102.999 111.363 103.83 110.466 102.913C110.444 102.891 110.158 103.129 109.995 103.246C109.478 103.618 109.013 104.157 108.436 104.339C99.6007 107.122 90.751 109.862 81.9027 112.604C80.6107 113.004 79.3049 113.361 78.006 113.738C78.7623 113.842 79.4623 113.725 80.136 113.521C89.5526 110.675 98.9686 107.825 108.375 104.946C109.306 104.66 109.721 104.728 109.587 105.838C109.542 106.204 109.794 106.606 109.911 106.993C110.116 106.646 110.355 106.313 110.52 105.948C110.893 105.118 110.714 104.113 111.973 103.655C116.74 101.921 121.476 100.091 126.169 98.1644C129.274 96.8897 132.29 95.3985 135.337 93.986C137.321 93.0664 139.307 92.1497 141.257 91.1616C142.093 90.7372 142.839 90.1344 143.626 89.6123ZM19.2206 81.2184C19.2756 81.3156 19.331 81.4122 19.3855 81.5089C21.1829 80.3518 22.9525 79.149 24.7821 78.0459C31.2558 74.1417 37.9711 70.6922 45.0418 68.0229C51.2611 65.6749 57.4938 63.2744 63.8868 61.4976C71.9169 59.2661 80.0949 57.5448 88.2527 55.8106C91.6771 55.0823 95.213 54.8741 98.7003 54.4517C100.739 54.2043 102.783 53.9941 104.825 53.7789C106.883 53.5622 108.943 53.36 111.001 53.1508C109.405 52.9703 107.817 52.8161 106.269 52.999C101.542 53.5568 96.8238 54.1978 92.1152 54.8909C79.7949 56.703 67.6355 59.281 55.888 63.4579C48.9276 65.9327 42.0812 68.7547 35.2802 71.6485C29.5134 74.1026 24.1108 77.2572 19.2206 81.2184ZM123.219 26.2288C104.598 25.9611 75.1077 30.2377 41.2416 47.4826C32.6453 51.8603 24.4846 57.0198 16.9916 63.1539C49.0019 40.4193 84.4535 27.7112 123.219 26.2288ZM172.573 32.8826C172.359 33.0913 172.119 33.5023 171.934 33.4785C170.123 33.2465 168.323 32.9342 166.516 32.6654C166.177 32.6149 165.823 32.656 165.476 32.6545C165.705 32.9099 165.893 33.2277 166.17 33.4096C167.768 34.4611 169.432 35.417 170.99 36.5226C176.25 40.2557 179.481 45.3076 180.394 51.719C180.642 53.4581 180.431 55.2632 180.431 57.3891C184.249 54.5548 187.36 51.6079 189.15 47.5827C190.022 45.622 190.182 43.4148 188.757 41.5343C185.878 37.7337 181.524 36.3718 177.321 34.7819C175.709 34.1721 173.736 34.4557 172.573 32.8826ZM96.8926 58.2924C97.1361 57.9979 97.3801 57.7024 97.6796 57.34C97.3301 57.2939 97.051 57.1794 96.8218 57.2429C96.3075 57.3841 95.8184 57.6147 95.3189 57.809C95.8605 57.9558 96.402 58.103 96.9435 58.2498C96.6064 58.5021 96.2891 58.9265 95.9273 58.9696C95.2382 59.0514 94.4918 58.7649 93.827 58.9052C92.8676 59.107 91.9855 59.6751 91.0262 59.8754C83.6357 61.4158 76.213 62.8074 68.8478 64.4588C65.9451 65.1098 63.1319 66.2193 60.3346 67.2703C55.5801 69.0566 50.5463 70.0477 45.9739 72.349C45.5893 72.5424 45.0873 72.4928 44.6913 72.6703C43.2004 73.3381 41.7139 74.0193 40.259 74.7615C38.9161 75.4461 37.6483 76.2845 36.2876 76.9275C34.9733 77.5487 33.565 77.9661 32.2285 78.5437C28.6382 80.096 25.7355 82.6933 22.7025 85.0572C21.0264 86.364 19.6132 88.0293 18.1851 89.6262C17.4351 90.4645 16.8674 91.4789 16.2932 92.459C15.6729 93.518 16.2045 94.0752 17.2639 94.1962C20.3819 94.5522 23.504 95.1486 26.625 95.1501C41.2783 95.1565 55.7513 93.0837 70.1972 90.9127C78.2772 89.6986 86.3177 88.2058 94.3487 86.6937C107.635 84.192 120.819 81.2278 133.807 77.4347C142.947 74.7649 151.985 71.8037 160.796 68.1667C161.916 67.7046 161.8 67.2822 161.139 66.5515C158.94 64.1182 156.064 62.5754 153.125 61.5283C149.348 60.1823 145.311 59.571 141.396 58.6052C141.116 58.5363 140.935 58.1243 140.671 57.9196C140.357 57.6752 140.003 57.4818 139.666 57.2667C139.533 57.4288 139.399 57.5909 139.266 57.753C139.627 57.8199 139.99 57.8864 140.351 57.9533C140.265 58.0663 140.18 58.1789 140.094 58.2919C139.397 58.1695 138.674 57.8646 138.008 57.9587C135.916 58.2552 133.909 57.5825 131.837 57.5775C128.31 57.5691 124.784 57.2577 121.258 57.0634C120.333 57.0123 119.41 56.872 118.485 56.8661C117.656 56.8606 116.827 56.9811 115.998 57.05C115.381 57.1016 114.764 57.1516 114.148 57.2161C113.572 57.2766 112.839 57.6152 112.454 57.3777C111.314 56.6747 110.273 57.113 109.224 57.3975C108.314 57.6439 107.474 58.0401 106.922 56.8328C106.834 56.6385 106.419 56.5815 106.143 56.4997C106.108 56.4893 105.912 56.7644 105.945 56.8269C106.5 57.8973 105.559 57.405 105.234 57.4932C104.798 57.6117 104.342 57.6623 103.893 57.7297C103.125 57.8447 102.356 57.9573 101.587 58.0569C100.653 58.1784 99.5765 58.0356 98.8216 58.4649C97.9811 58.9434 97.5074 58.6241 96.8926 58.2924ZM37.7107 58.8378C36.142 59.5432 34.5154 60.1461 33.0121 60.9725C26.1325 64.7538 19.831 69.3615 14.2364 74.8646C12.296 76.7733 10.8154 79.1485 9.09423 81.2853C7.00183 83.8817 5.83459 86.8528 5.67273 90.1577C5.62521 91.1219 5.84697 92.3614 6.44049 93.0421C7.79632 94.5983 9.66399 95.4941 11.8564 96.0469C10.3615 93.3142 9.73081 90.5949 11.2941 87.953C12.3806 86.1171 13.734 84.3651 15.265 82.8832C19.9305 78.3682 25.5365 75.1953 31.2414 72.2201C40.1922 67.5524 49.5865 63.965 59.2001 60.9378C71.659 57.0143 84.3624 54.2167 97.3569 52.833C101.856 52.354 106.37 51.9882 110.884 51.6872C120.069 51.0754 129.224 51.4825 138.322 52.8597C143.269 53.6079 148.138 54.6267 152.844 56.4928C157.631 58.3921 161.975 60.6538 164.315 65.5594C164.6 66.1563 164.929 66.3596 165.579 66.02C167.133 65.2084 168.742 64.501 170.277 63.6581C171.528 62.971 172.969 62.3771 173.86 61.3404C175.852 59.0266 177.104 56.2746 177.289 53.1438C177.433 50.6982 177.034 48.2466 175.62 46.3215C173.926 44.0137 172.163 41.5527 169.464 40.3182C168.16 39.7223 167.647 37.9484 165.91 38.1194C165.769 38.1338 165.593 37.6792 165.415 37.4561C164.865 36.7665 163.69 37.0203 163.313 36.065C163.234 36.1031 163.157 36.1621 163.074 36.1755C162.706 36.233 162.287 36.4155 161.973 36.3064C158.196 34.9941 154.457 33.5821 150.515 32.7849C146.903 32.0547 143.312 31.6288 139.594 31.8653C137.283 32.012 134.936 32.7859 132.564 31.9272C132.108 31.7621 131.404 32.4557 130.786 32.5321C126.726 33.0363 122.666 33.5801 118.59 33.9143C114.621 34.2405 110.805 35.7556 106.714 35.2801C105.776 35.1711 104.521 35.1641 103.626 36.2762C103.225 36.7734 102.089 36.116 101.154 36.5954C100.155 37.1076 98.8013 36.9256 97.6024 37.0496C97.5618 37.0535 97.5262 37.1011 97.4846 37.1115C94.8487 37.7377 92.3043 38.7089 89.7233 39.4456C79.9499 42.2353 70.216 45.1098 60.7242 48.7622C58.5853 49.5852 56.4919 50.5534 54.3064 51.2187C51.3863 52.1076 48.3891 52.6832 45.8214 54.5369C44.8616 55.23 43.5771 55.463 42.4623 55.9553C42.0307 56.1462 41.6594 56.4734 41.2604 56.7391C40.0774 57.4387 38.8943 58.1382 37.7107 58.8378ZM124.993 94.0663C124.633 94.2919 124.3 94.6315 123.909 94.7257C117.187 96.3454 110.501 98.1634 103.719 99.4732C95.0783 101.141 86.3632 102.425 77.6684 103.801C75.4651 104.15 73.2128 104.177 70.9932 104.433C69.5913 104.596 68.2157 104.996 66.8133 105.141C63.1572 105.52 59.4936 105.839 55.8291 106.127C55.1905 106.178 54.5297 105.885 53.8832 105.902C53.4877 105.914 53.104 106.354 52.708 106.365C49.2687 106.472 45.8269 106.608 42.3876 106.571C37.7107 106.521 33.0156 106.551 28.3649 106.139C21.271 105.511 14.2334 104.39 8.1849 100.174C4.22383 97.4138 0.783518 94.2498 0.119215 89.0109C-0.360944 85.2242 0.636005 81.8381 2.62891 78.7475C4.13374 76.4134 5.96627 74.293 7.59782 72.0377C8.04976 71.4135 8.24529 70.6079 8.66753 69.9564C9.32193 68.947 9.94367 67.8672 10.7985 67.0462C15.6165 62.4177 20.9774 58.4684 26.6131 54.9172C30.785 52.2881 35.0179 49.7269 39.3779 47.429C53.3169 40.0822 67.7964 34.0774 83.1348 30.2907C93.3844 27.7608 103.753 25.8392 114.288 25.2021C120.647 24.8169 127.049 25.0955 133.431 25.1243C138.6 25.1476 143.767 25.2472 148.936 25.3057C158.411 25.4133 167.769 26.4301 176.862 29.2104C181.41 30.6006 185.666 32.5921 189.061 36.0992C192.964 40.1313 194.21 47.2996 191.69 52.3312C189.64 56.4233 186.696 59.7881 182.923 62.4078C180.944 63.7811 178.891 65.0711 177.052 66.6134C175.483 67.9282 174.27 69.6634 172.723 71.009C170.305 73.112 167.699 74.9969 165.257 77.0737C164.474 77.7386 164.009 78.7638 163.309 79.5437C161.408 81.6611 159.67 83.9977 157.48 85.7661C154.12 88.478 150.473 90.8403 146.878 93.2458C144.958 94.5309 142.891 95.5958 140.89 96.7594C139.438 96.8441 138.201 97.3498 137.338 98.5858C135.007 99.6423 132.678 100.705 130.341 101.751C129.838 101.976 129.307 102.137 128.795 102.323C126.919 103.07 125.038 103.822 123.157 104.573C122.536 104.991 121.967 105.546 121.286 105.806C107.581 111.039 93.6007 115.391 79.3301 118.788C70.3398 120.928 61.3831 123.244 52.3239 125.041C44.377 126.617 36.3118 127.599 28.2917 128.796C27.0101 128.987 25.6889 128.898 24.389 128.986C22.8916 129.087 21.6091 128.639 20.5096 127.626C20.3829 127.508 20.2265 127.415 20.0711 127.336C19.6607 127.123 19.2429 126.925 18.8281 126.721C19.1904 126.455 19.5538 126.188 19.9602 125.89C19.8602 125.806 19.7805 125.71 19.6785 125.658C19.2786 125.456 18.8717 125.266 18.4672 125.071C18.9276 124.793 19.3731 124.3 19.8493 124.268C35.9104 123.171 51.3685 118.961 66.8732 115.061C85.0084 110.5 102.903 105.117 120.345 98.3176C124.361 96.7519 128.332 95.0564 132.261 93.2825C135.131 91.988 137.898 90.468 140.6 88.7665C139.188 89.2444 137.784 89.7457 136.363 90.1953C133.369 91.1428 130.363 92.0495 127.373 93.0098C126.971 93.1387 126.638 93.4818 126.274 93.7257C125.847 93.8393 125.42 93.9528 124.993 94.0663Z" fill="black"/>
<path fill-rule="evenodd" clip-rule="evenodd" d="M68.5307 10.4797C68.0109 10.8632 67.6464 11.2087 67.4381 11.6991C67.3813 11.8333 67.3022 11.9865 67.4621 12.0822C67.5371 12.1274 67.7599 12.081 67.7603 12.0723C67.774 11.4539 68.7735 11.3826 68.5307 10.4797ZM105.086 42.1462C105.159 42.2063 105.231 42.2663 105.304 42.3264C106.282 41.616 107.097 40.7532 107.733 39.721C107.266 40.064 106.892 40.4985 106.482 40.8961C106.034 41.3302 105.552 41.7308 105.086 42.1462ZM77.096 19.2376C78.0495 17.8003 79.2262 16.51 79.7299 14.8317C78.337 16.0002 77.7633 17.657 77.096 19.2376ZM98.0422 29.3656C97.1537 30.4835 95.88 31.3633 95.7297 32.9526C96.7664 31.9316 97.7137 30.8534 98.0422 29.3656ZM69.7004 9.38412C71.8804 7.52063 74.4016 6.08418 76.3844 3.97341C73.8681 5.41608 71.4865 7.0269 69.7004 9.38412ZM103.73 30.269C101.672 32.9157 99.6712 35.4896 97.6702 38.0634C101.545 34.7697 103.425 32.3114 103.73 30.269ZM70.5003 19.4053C70.6038 19.3365 70.7401 19.2976 70.767 19.2202C71.7843 16.3166 73.8201 14.2017 76.0369 12.1796C77.1378 11.1751 77.8681 9.82442 78.8323 8.35939C75.7557 9.34974 70.6349 16.3232 70.5003 19.4053ZM84.89 50.4385C73.2518 50.2401 65.3112 43.6928 62.0236 33.2682C60.1378 27.2871 60.9558 21.4842 63.6717 15.9989C66.415 10.459 70.5069 6.03572 76.0775 3.20258C78.4045 2.01921 80.8988 1.15436 83.3492 0.230276C84.3048 -0.130079 85.3191 -0.0414395 86.3244 0.315602C87.6002 0.768738 88.9583 0.957614 90.3016 0.912052C93.2797 0.811815 95.9405 1.76613 98.4067 3.28377C100.069 4.30726 101.863 5.13442 103.351 6.43004C107.976 10.4565 111.18 15.4095 112.998 21.2609C113.684 23.4665 113.444 25.721 113.23 27.9511C113.107 29.236 112.604 30.5063 112.403 31.7386C112.246 32.697 111.463 33.3925 111.525 34.0316C111.618 34.9975 111.222 35.6084 110.834 36.2819C107.174 42.6163 101.439 46.2099 94.6838 48.4441C92.291 49.2357 89.865 49.8984 87.3719 50.2724C86.4085 50.4165 85.4219 50.4058 84.89 50.4385Z" fill="black"/>
<path fill-rule="evenodd" clip-rule="evenodd" d="M96.2654 149.346L92.3681 143.16C93.3049 145.45 94.6249 147.503 96.2654 149.346ZM100.882 164.682C99.667 162.152 98.3766 159.687 97.4551 157.052C97.8506 159.94 99.2934 162.359 100.882 164.682ZM107.649 156.238C108.707 156.018 108.424 155.366 108.196 154.762C107.424 152.716 105.554 151.991 103.761 151.314C102.453 150.821 101.032 150.474 99.5859 150.776C99.0344 150.891 98.6297 151.134 99.1801 151.759C100.683 153.464 102.374 154.923 104.514 155.771C105.533 156.175 106.598 156.376 107.649 156.238ZM98.7055 156.787C99.001 158.524 99.84 160.068 100.623 161.622C104.007 168.335 109.12 173.488 115.153 177.848C119.184 180.761 123.453 183.261 127.818 185.615C128.216 185.83 128.627 186.032 128.877 186.433C129.157 186.884 129.194 187.238 128.491 187.152C128.318 187.131 128.119 186.942 128.093 187.267C128.003 188.389 127.175 188.274 126.438 188.241C125.054 188.182 123.831 187.535 122.593 187.025C119.126 185.595 115.71 184.032 112.528 182.034C109.575 180.18 106.923 177.918 104.336 175.584C102.69 174.098 101.035 172.563 100.008 170.612C99.3251 169.316 98.2354 168.388 97.5537 167.127C96.247 164.709 94.9712 162.287 94.2239 159.623C93.609 157.43 93.5844 155.236 94.2608 153.06C94.4841 152.343 94.377 151.739 93.9677 151.152C92.8651 149.569 91.8101 147.946 90.7854 146.322C89.1177 143.68 87.8769 140.786 86.7556 137.863C84.9672 133.2 83.6702 128.422 83.5578 123.387C83.4917 120.427 83.6188 117.505 85.296 114.9C85.7375 114.214 86.2698 113.66 87.1163 113.5C87.4811 113.431 87.7806 113.485 88.0109 113.806C88.2825 114.185 87.9935 114.288 87.7646 114.542C86.194 116.28 86.4178 118.446 86.4493 120.545C86.5358 126.328 88.277 131.715 90.4535 136.992C92.1192 141.03 94.1629 144.867 96.6532 148.46C96.8509 148.745 96.9359 149.18 97.4704 148.788C99.3327 147.42 101.476 147.099 103.694 147.385C107.118 147.826 110.101 149.119 111.841 152.324C112.776 154.046 112.45 155.405 111.123 156.831C107.74 160.465 103.107 159.909 99.8396 157.344C99.5472 157.114 99.255 156.885 98.9632 156.655C98.877 156.699 98.7913 156.743 98.7055 156.787Z" fill="black"/>
<path fill-rule="evenodd" clip-rule="evenodd" d="M134.097 186.093C135.252 188.096 136.65 189.898 138.406 191.406C136.97 189.635 135.533 187.865 134.097 186.093ZM126.038 192.548C128.335 192.092 130.67 192.036 132.996 191.889C133.344 191.867 133.763 192.025 133.963 191.538C134.155 191.07 133.798 190.821 133.556 190.586C132.24 189.307 131.374 187.713 130.337 186.231C129.682 185.295 128.844 184.476 128.2 183.494C127.209 181.982 126.103 180.542 125.009 179.1C124.455 178.369 124.267 177.411 123.397 176.861C122.544 176.322 122.588 175.522 123.563 174.41C124.061 173.842 124.814 173.487 125.543 174.105C126.142 174.613 126.712 175.176 127.2 175.79C130.428 179.854 133.622 183.943 136.845 188.011C137.569 188.924 138.354 189.789 139.121 190.667C140.517 192.263 140.421 193.091 138.797 194.469C137.537 195.539 136.142 195.911 134.51 195.741C131.367 195.415 128.216 195.178 125.054 195.45C124.42 195.504 123.795 195.648 123.163 195.728C122.431 195.82 122.173 195.524 122.458 194.815C123.091 193.242 123.38 193.057 126.038 192.548Z" fill="black"/>
</svg>
